solid OpenSCAD_Model
  facet normal -1 0 0
    outer loop
      vertex 0 0 0
      vertex 0 5 8
      vertex 0 5 0
    endloop
  endfacet
  facet normal -1 -0 0
    outer loop
      vertex 0 5 8
      vertex 0 0 0
      vertex 0 0 8
    endloop
  endfacet
  facet normal 0 0 1
    outer loop
      vertex 1 5 8
      vertex 0 5 8
      vertex 1 3 8
    endloop
  endfacet
  facet normal 0 0 1
    outer loop
      vertex 3 5 8
      vertex 2 5 8
      vertex 3 3 8
    endloop
  endfacet
  facet normal 0 0 1
    outer loop
      vertex 5 5 8
      vertex 4 5 8
      vertex 5 3 8
    endloop
  endfacet
  facet normal 0 0 1
    outer loop
      vertex 7 5 8
      vertex 6 5 8
      vertex 7 3 8
    endloop
  endfacet
  facet normal 0 0 1
    outer loop
      vertex 9 5 8
      vertex 8 5 8
      vertex 9 3 8
    endloop
  endfacet
  facet normal 0 0 1
    outer loop
      vertex 11 5 8
      vertex 10 5 8
      vertex 11 3 8
    endloop
  endfacet
  facet normal 0 0 1
    outer loop
      vertex 13 5 8
      vertex 12 5 8
      vertex 13 3 8
    endloop
  endfacet
  facet normal 0 0 1
    outer loop
      vertex 14 3 8
      vertex 15 5 8
      vertex 14 5 8
    endloop
  endfacet
  facet normal 0 0 1
    outer loop
      vertex 15 5 8
      vertex 14 3 8
      vertex 15 0 8
    endloop
  endfacet
  facet normal -0 0 1
    outer loop
      vertex 13 3 8
      vertex 15 0 8
      vertex 14 3 8
    endloop
  endfacet
  facet normal 0 0 1
    outer loop
      vertex 12 3 8
      vertex 13 3 8
      vertex 12 5 8
    endloop
  endfacet
  facet normal -0 0 1
    outer loop
      vertex 12 3 8
      vertex 15 0 8
      vertex 13 3 8
    endloop
  endfacet
  facet normal -0 0 1
    outer loop
      vertex 11 3 8
      vertex 15 0 8
      vertex 12 3 8
    endloop
  endfacet
  facet normal 0 0 1
    outer loop
      vertex 10 3 8
      vertex 11 3 8
      vertex 10 5 8
    endloop
  endfacet
  facet normal -0 0 1
    outer loop
      vertex 10 3 8
      vertex 15 0 8
      vertex 11 3 8
    endloop
  endfacet
  facet normal -0 0 1
    outer loop
      vertex 9 3 8
      vertex 15 0 8
      vertex 10 3 8
    endloop
  endfacet
  facet normal 0 0 1
    outer loop
      vertex 8 3 8
      vertex 9 3 8
      vertex 8 5 8
    endloop
  endfacet
  facet normal -0 0 1
    outer loop
      vertex 8 3 8
      vertex 15 0 8
      vertex 9 3 8
    endloop
  endfacet
  facet normal -0 0 1
    outer loop
      vertex 7 3 8
      vertex 15 0 8
      vertex 8 3 8
    endloop
  endfacet
  facet normal 0 0 1
    outer loop
      vertex 6 3 8
      vertex 7 3 8
      vertex 6 5 8
    endloop
  endfacet
  facet normal 0 0 1
    outer loop
      vertex 0 0 8
      vertex 7 3 8
      vertex 6 3 8
    endloop
  endfacet
  facet normal 0 0 1
    outer loop
      vertex 0 0 8
      vertex 6 3 8
      vertex 5 3 8
    endloop
  endfacet
  facet normal 0 0 1
    outer loop
      vertex 4 3 8
      vertex 5 3 8
      vertex 4 5 8
    endloop
  endfacet
  facet normal 0 0 1
    outer loop
      vertex 0 0 8
      vertex 5 3 8
      vertex 4 3 8
    endloop
  endfacet
  facet normal 0 0 1
    outer loop
      vertex 0 0 8
      vertex 4 3 8
      vertex 3 3 8
    endloop
  endfacet
  facet normal 0 0 1
    outer loop
      vertex 2 3 8
      vertex 3 3 8
      vertex 2 5 8
    endloop
  endfacet
  facet normal 0 0 1
    outer loop
      vertex 0 0 8
      vertex 3 3 8
      vertex 2 3 8
    endloop
  endfacet
  facet normal 0 0 1
    outer loop
      vertex 0 0 8
      vertex 2 3 8
      vertex 1 3 8
    endloop
  endfacet
  facet normal 0 0 1
    outer loop
      vertex 7 3 8
      vertex 0 0 8
      vertex 15 0 8
    endloop
  endfacet
  facet normal 0 0 1
    outer loop
      vertex 0 0 8
      vertex 1 3 8
      vertex 0 5 8
    endloop
  endfacet
  facet normal 1 -0 0
    outer loop
      vertex 15 0 8
      vertex 15 5 0
      vertex 15 5 8
    endloop
  endfacet
  facet normal 1 0 0
    outer loop
      vertex 15 5 0
      vertex 15 0 8
      vertex 15 0 0
    endloop
  endfacet
  facet normal 0 1 -0
    outer loop
      vertex 14 3 0
      vertex 13 3 8
      vertex 14 3 8
    endloop
  endfacet
  facet normal 0 1 0
    outer loop
      vertex 13 3 8
      vertex 14 3 0
      vertex 13 3 0
    endloop
  endfacet
  facet normal 0 1 -0
    outer loop
      vertex 12 3 0
      vertex 11 3 8
      vertex 12 3 8
    endloop
  endfacet
  facet normal 0 1 0
    outer loop
      vertex 11 3 8
      vertex 12 3 0
      vertex 11 3 0
    endloop
  endfacet
  facet normal 0 1 -0
    outer loop
      vertex 10 3 0
      vertex 9 3 8
      vertex 10 3 8
    endloop
  endfacet
  facet normal 0 1 0
    outer loop
      vertex 9 3 8
      vertex 10 3 0
      vertex 9 3 0
    endloop
  endfacet
  facet normal 0 1 -0
    outer loop
      vertex 8 3 0
      vertex 7 3 8
      vertex 8 3 8
    endloop
  endfacet
  facet normal 0 1 0
    outer loop
      vertex 7 3 8
      vertex 8 3 0
      vertex 7 3 0
    endloop
  endfacet
  facet normal 0 1 -0
    outer loop
      vertex 6 3 0
      vertex 5 3 8
      vertex 6 3 8
    endloop
  endfacet
  facet normal 0 1 0
    outer loop
      vertex 5 3 8
      vertex 6 3 0
      vertex 5 3 0
    endloop
  endfacet
  facet normal 0 1 -0
    outer loop
      vertex 4 3 0
      vertex 3 3 8
      vertex 4 3 8
    endloop
  endfacet
  facet normal 0 1 0
    outer loop
      vertex 3 3 8
      vertex 4 3 0
      vertex 3 3 0
    endloop
  endfacet
  facet normal 0 1 -0
    outer loop
      vertex 2 3 0
      vertex 1 3 8
      vertex 2 3 8
    endloop
  endfacet
  facet normal 0 1 0
    outer loop
      vertex 1 3 8
      vertex 2 3 0
      vertex 1 3 0
    endloop
  endfacet
  facet normal 0 0 -1
    outer loop
      vertex 15 0 0
      vertex 14 3 0
      vertex 15 5 0
    endloop
  endfacet
  facet normal 0 0 -1
    outer loop
      vertex 15 0 0
      vertex 13 3 0
      vertex 14 3 0
    endloop
  endfacet
  facet normal 0 0 -1
    outer loop
      vertex 13 3 0
      vertex 12 3 0
      vertex 13 5 0
    endloop
  endfacet
  facet normal 0 0 -1
    outer loop
      vertex 15 0 0
      vertex 12 3 0
      vertex 13 3 0
    endloop
  endfacet
  facet normal 0 0 -1
    outer loop
      vertex 15 0 0
      vertex 11 3 0
      vertex 12 3 0
    endloop
  endfacet
  facet normal 0 0 -1
    outer loop
      vertex 11 3 0
      vertex 10 3 0
      vertex 11 5 0
    endloop
  endfacet
  facet normal 0 0 -1
    outer loop
      vertex 15 0 0
      vertex 10 3 0
      vertex 11 3 0
    endloop
  endfacet
  facet normal 0 0 -1
    outer loop
      vertex 15 0 0
      vertex 9 3 0
      vertex 10 3 0
    endloop
  endfacet
  facet normal 0 0 -1
    outer loop
      vertex 9 3 0
      vertex 8 3 0
      vertex 9 5 0
    endloop
  endfacet
  facet normal 0 0 -1
    outer loop
      vertex 15 0 0
      vertex 8 3 0
      vertex 9 3 0
    endloop
  endfacet
  facet normal 0 0 -1
    outer loop
      vertex 15 0 0
      vertex 7 3 0
      vertex 8 3 0
    endloop
  endfacet
  facet normal 0 0 -1
    outer loop
      vertex 7 3 0
      vertex 6 3 0
      vertex 7 5 0
    endloop
  endfacet
  facet normal 0 0 -1
    outer loop
      vertex 0 0 0
      vertex 7 3 0
      vertex 15 0 0
    endloop
  endfacet
  facet normal -0 0 -1
    outer loop
      vertex 7 3 0
      vertex 0 0 0
      vertex 6 3 0
    endloop
  endfacet
  facet normal 0 0 -1
    outer loop
      vertex 5 3 0
      vertex 4 3 0
      vertex 5 5 0
    endloop
  endfacet
  facet normal -0 0 -1
    outer loop
      vertex 6 3 0
      vertex 0 0 0
      vertex 5 3 0
    endloop
  endfacet
  facet normal -0 0 -1
    outer loop
      vertex 5 3 0
      vertex 0 0 0
      vertex 4 3 0
    endloop
  endfacet
  facet normal 0 0 -1
    outer loop
      vertex 3 3 0
      vertex 2 3 0
      vertex 3 5 0
    endloop
  endfacet
  facet normal -0 0 -1
    outer loop
      vertex 4 3 0
      vertex 0 0 0
      vertex 3 3 0
    endloop
  endfacet
  facet normal -0 0 -1
    outer loop
      vertex 3 3 0
      vertex 0 0 0
      vertex 2 3 0
    endloop
  endfacet
  facet normal -0 0 -1
    outer loop
      vertex 2 3 0
      vertex 0 0 0
      vertex 1 3 0
    endloop
  endfacet
  facet normal 0 0 -1
    outer loop
      vertex 0 5 0
      vertex 1 3 0
      vertex 0 0 0
    endloop
  endfacet
  facet normal 0 0 -1
    outer loop
      vertex 1 3 0
      vertex 0 5 0
      vertex 1 5 0
    endloop
  endfacet
  facet normal -0 0 -1
    outer loop
      vertex 15 5 0
      vertex 14 3 0
      vertex 14 5 0
    endloop
  endfacet
  facet normal -0 0 -1
    outer loop
      vertex 13 5 0
      vertex 12 3 0
      vertex 12 5 0
    endloop
  endfacet
  facet normal -0 0 -1
    outer loop
      vertex 11 5 0
      vertex 10 3 0
      vertex 10 5 0
    endloop
  endfacet
  facet normal -0 0 -1
    outer loop
      vertex 9 5 0
      vertex 8 3 0
      vertex 8 5 0
    endloop
  endfacet
  facet normal -0 0 -1
    outer loop
      vertex 7 5 0
      vertex 6 3 0
      vertex 6 5 0
    endloop
  endfacet
  facet normal -0 0 -1
    outer loop
      vertex 5 5 0
      vertex 4 3 0
      vertex 4 5 0
    endloop
  endfacet
  facet normal -0 0 -1
    outer loop
      vertex 3 5 0
      vertex 2 3 0
      vertex 2 5 0
    endloop
  endfacet
  facet normal 0 -1 0
    outer loop
      vertex 0 0 0
      vertex 15 0 8
      vertex 0 0 8
    endloop
  endfacet
  facet normal 0 -1 -0
    outer loop
      vertex 15 0 8
      vertex 0 0 0
      vertex 15 0 0
    endloop
  endfacet
  facet normal 1 -0 0
    outer loop
      vertex 1 3 8
      vertex 1 5 0
      vertex 1 5 8
    endloop
  endfacet
  facet normal 1 0 0
    outer loop
      vertex 1 5 0
      vertex 1 3 8
      vertex 1 3 0
    endloop
  endfacet
  facet normal 0 1 -0
    outer loop
      vertex 1 5 0
      vertex 0 5 8
      vertex 1 5 8
    endloop
  endfacet
  facet normal 0 1 0
    outer loop
      vertex 0 5 8
      vertex 1 5 0
      vertex 0 5 0
    endloop
  endfacet
  facet normal -1 0 0
    outer loop
      vertex 2 3 0
      vertex 2 5 8
      vertex 2 5 0
    endloop
  endfacet
  facet normal -1 -0 0
    outer loop
      vertex 2 5 8
      vertex 2 3 0
      vertex 2 3 8
    endloop
  endfacet
  facet normal 1 -0 0
    outer loop
      vertex 3 3 8
      vertex 3 5 0
      vertex 3 5 8
    endloop
  endfacet
  facet normal 1 0 0
    outer loop
      vertex 3 5 0
      vertex 3 3 8
      vertex 3 3 0
    endloop
  endfacet
  facet normal 0 1 -0
    outer loop
      vertex 3 5 0
      vertex 2 5 8
      vertex 3 5 8
    endloop
  endfacet
  facet normal 0 1 0
    outer loop
      vertex 2 5 8
      vertex 3 5 0
      vertex 2 5 0
    endloop
  endfacet
  facet normal -1 0 0
    outer loop
      vertex 4 3 0
      vertex 4 5 8
      vertex 4 5 0
    endloop
  endfacet
  facet normal -1 -0 0
    outer loop
      vertex 4 5 8
      vertex 4 3 0
      vertex 4 3 8
    endloop
  endfacet
  facet normal 1 -0 0
    outer loop
      vertex 5 3 8
      vertex 5 5 0
      vertex 5 5 8
    endloop
  endfacet
  facet normal 1 0 0
    outer loop
      vertex 5 5 0
      vertex 5 3 8
      vertex 5 3 0
    endloop
  endfacet
  facet normal 0 1 -0
    outer loop
      vertex 5 5 0
      vertex 4 5 8
      vertex 5 5 8
    endloop
  endfacet
  facet normal 0 1 0
    outer loop
      vertex 4 5 8
      vertex 5 5 0
      vertex 4 5 0
    endloop
  endfacet
  facet normal -1 0 0
    outer loop
      vertex 6 3 0
      vertex 6 5 8
      vertex 6 5 0
    endloop
  endfacet
  facet normal -1 -0 0
    outer loop
      vertex 6 5 8
      vertex 6 3 0
      vertex 6 3 8
    endloop
  endfacet
  facet normal 1 -0 0
    outer loop
      vertex 7 3 8
      vertex 7 5 0
      vertex 7 5 8
    endloop
  endfacet
  facet normal 1 0 0
    outer loop
      vertex 7 5 0
      vertex 7 3 8
      vertex 7 3 0
    endloop
  endfacet
  facet normal 0 1 -0
    outer loop
      vertex 7 5 0
      vertex 6 5 8
      vertex 7 5 8
    endloop
  endfacet
  facet normal 0 1 0
    outer loop
      vertex 6 5 8
      vertex 7 5 0
      vertex 6 5 0
    endloop
  endfacet
  facet normal -1 0 0
    outer loop
      vertex 8 3 0
      vertex 8 5 8
      vertex 8 5 0
    endloop
  endfacet
  facet normal -1 -0 0
    outer loop
      vertex 8 5 8
      vertex 8 3 0
      vertex 8 3 8
    endloop
  endfacet
  facet normal 1 -0 0
    outer loop
      vertex 9 3 8
      vertex 9 5 0
      vertex 9 5 8
    endloop
  endfacet
  facet normal 1 0 0
    outer loop
      vertex 9 5 0
      vertex 9 3 8
      vertex 9 3 0
    endloop
  endfacet
  facet normal 0 1 -0
    outer loop
      vertex 9 5 0
      vertex 8 5 8
      vertex 9 5 8
    endloop
  endfacet
  facet normal 0 1 0
    outer loop
      vertex 8 5 8
      vertex 9 5 0
      vertex 8 5 0
    endloop
  endfacet
  facet normal -1 0 0
    outer loop
      vertex 10 3 0
      vertex 10 5 8
      vertex 10 5 0
    endloop
  endfacet
  facet normal -1 -0 0
    outer loop
      vertex 10 5 8
      vertex 10 3 0
      vertex 10 3 8
    endloop
  endfacet
  facet normal 1 -0 0
    outer loop
      vertex 11 3 8
      vertex 11 5 0
      vertex 11 5 8
    endloop
  endfacet
  facet normal 1 0 0
    outer loop
      vertex 11 5 0
      vertex 11 3 8
      vertex 11 3 0
    endloop
  endfacet
  facet normal 0 1 -0
    outer loop
      vertex 11 5 0
      vertex 10 5 8
      vertex 11 5 8
    endloop
  endfacet
  facet normal 0 1 0
    outer loop
      vertex 10 5 8
      vertex 11 5 0
      vertex 10 5 0
    endloop
  endfacet
  facet normal -1 0 0
    outer loop
      vertex 12 3 0
      vertex 12 5 8
      vertex 12 5 0
    endloop
  endfacet
  facet normal -1 -0 0
    outer loop
      vertex 12 5 8
      vertex 12 3 0
      vertex 12 3 8
    endloop
  endfacet
  facet normal 1 -0 0
    outer loop
      vertex 13 3 8
      vertex 13 5 0
      vertex 13 5 8
    endloop
  endfacet
  facet normal 1 0 0
    outer loop
      vertex 13 5 0
      vertex 13 3 8
      vertex 13 3 0
    endloop
  endfacet
  facet normal 0 1 -0
    outer loop
      vertex 13 5 0
      vertex 12 5 8
      vertex 13 5 8
    endloop
  endfacet
  facet normal 0 1 0
    outer loop
      vertex 12 5 8
      vertex 13 5 0
      vertex 12 5 0
    endloop
  endfacet
  facet normal -1 0 0
    outer loop
      vertex 14 3 0
      vertex 14 5 8
      vertex 14 5 0
    endloop
  endfacet
  facet normal -1 -0 0
    outer loop
      vertex 14 5 8
      vertex 14 3 0
      vertex 14 3 8
    endloop
  endfacet
  facet normal 0 1 -0
    outer loop
      vertex 15 5 0
      vertex 14 5 8
      vertex 15 5 8
    endloop
  endfacet
  facet normal 0 1 0
    outer loop
      vertex 14 5 8
      vertex 15 5 0
      vertex 14 5 0
    endloop
  endfacet
endsolid OpenSCAD_Model
