solid OpenSCAD_Model
  facet normal -1 0 0
    outer loop
      vertex 0 20 0
      vertex 0 16.5 5
      vertex 0 20 13
    endloop
  endfacet
  facet normal -1 0 0
    outer loop
      vertex 0 20 0
      vertex 0 10 5
      vertex 0 16.5 5
    endloop
  endfacet
  facet normal -1 0 0
    outer loop
      vertex 0 0 0
      vertex 0 10 5
      vertex 0 20 0
    endloop
  endfacet
  facet normal -1 0 0
    outer loop
      vertex 0 0 13
      vertex 0 10 5
      vertex 0 0 0
    endloop
  endfacet
  facet normal -1 0 0
    outer loop
      vertex 0 10 5
      vertex 0 0 13
      vertex 0 10 13
    endloop
  endfacet
  facet normal -1 -0 0
    outer loop
      vertex 0 20 13
      vertex 0 16.5 5
      vertex 0 16.5 13
    endloop
  endfacet
  facet normal 0 0 1
    outer loop
      vertex -0.949747 15.364 13
      vertex 3 10 13
      vertex 4.41421 10 13
    endloop
  endfacet
  facet normal 0 0 1
    outer loop
      vertex 3 10 13
      vertex -0.949747 15.364 13
      vertex -1.65685 14.6569 13
    endloop
  endfacet
  facet normal 0 0 1
    outer loop
      vertex 1.05025 15.364 13
      vertex 5 10 13
      vertex 6.41421 10 13
    endloop
  endfacet
  facet normal 0 0 1
    outer loop
      vertex 5 10 13
      vertex 1.05025 15.364 13
      vertex 0.343145 14.6569 13
    endloop
  endfacet
  facet normal 0 0 1
    outer loop
      vertex 3.05025 15.364 13
      vertex 7 10 13
      vertex 8.41421 10 13
    endloop
  endfacet
  facet normal 0 0 1
    outer loop
      vertex 7 10 13
      vertex 3.05025 15.364 13
      vertex 2.34315 14.6569 13
    endloop
  endfacet
  facet normal 0 0 1
    outer loop
      vertex 5.05025 15.364 13
      vertex 9 10 13
      vertex 10.4142 10 13
    endloop
  endfacet
  facet normal 0 0 1
    outer loop
      vertex 9 10 13
      vertex 5.05025 15.364 13
      vertex 4.34315 14.6569 13
    endloop
  endfacet
  facet normal 0 0 1
    outer loop
      vertex 7.05025 15.364 13
      vertex 11 10 13
      vertex 12.4142 10 13
    endloop
  endfacet
  facet normal 0 0 1
    outer loop
      vertex 11 10 13
      vertex 7.05025 15.364 13
      vertex 6.34315 14.6569 13
    endloop
  endfacet
  facet normal 0 0 1
    outer loop
      vertex 9.05025 15.364 13
      vertex 13 10 13
      vertex 14.4142 10 13
    endloop
  endfacet
  facet normal 0 0 1
    outer loop
      vertex 13 10 13
      vertex 9.05025 15.364 13
      vertex 8.34315 14.6569 13
    endloop
  endfacet
  facet normal -0 0 1
    outer loop
      vertex 14.4142 10 13
      vertex 15 0 13
      vertex 15 10 13
    endloop
  endfacet
  facet normal -0 0 1
    outer loop
      vertex 13 10 13
      vertex 15 0 13
      vertex 14.4142 10 13
    endloop
  endfacet
  facet normal -0 0 1
    outer loop
      vertex 12.4142 10 13
      vertex 15 0 13
      vertex 13 10 13
    endloop
  endfacet
  facet normal -0 0 1
    outer loop
      vertex 11 10 13
      vertex 15 0 13
      vertex 12.4142 10 13
    endloop
  endfacet
  facet normal -0 0 1
    outer loop
      vertex 10.4142 10 13
      vertex 15 0 13
      vertex 11 10 13
    endloop
  endfacet
  facet normal -0 0 1
    outer loop
      vertex 9 10 13
      vertex 15 0 13
      vertex 10.4142 10 13
    endloop
  endfacet
  facet normal -0 0 1
    outer loop
      vertex 8.41421 10 13
      vertex 15 0 13
      vertex 9 10 13
    endloop
  endfacet
  facet normal -0 0 1
    outer loop
      vertex 7 10 13
      vertex 15 0 13
      vertex 8.41421 10 13
    endloop
  endfacet
  facet normal 0 0 1
    outer loop
      vertex 0 0 13
      vertex 7 10 13
      vertex 6.41421 10 13
    endloop
  endfacet
  facet normal 0 0 1
    outer loop
      vertex 0 0 13
      vertex 6.41421 10 13
      vertex 5 10 13
    endloop
  endfacet
  facet normal 0 0 1
    outer loop
      vertex 0 0 13
      vertex 5 10 13
      vertex 4.41421 10 13
    endloop
  endfacet
  facet normal 0 0 1
    outer loop
      vertex 0 0 13
      vertex 4.41421 10 13
      vertex 3 10 13
    endloop
  endfacet
  facet normal 0 0 1
    outer loop
      vertex 0 0 13
      vertex 3 10 13
      vertex 0 10 13
    endloop
  endfacet
  facet normal 0 0 1
    outer loop
      vertex 7 10 13
      vertex 0 0 13
      vertex 15 0 13
    endloop
  endfacet
  facet normal -0 0 1
    outer loop
      vertex 0 20 13
      vertex 15 16.5 13
      vertex 15 20 13
    endloop
  endfacet
  facet normal 0 0 1
    outer loop
      vertex 15 16.5 13
      vertex 0 20 13
      vertex 0 16.5 13
    endloop
  endfacet
  facet normal 1 0 0
    outer loop
      vertex 15 10 13
      vertex 15 0 13
      vertex 15 10 5
    endloop
  endfacet
  facet normal 1 0 0
    outer loop
      vertex 15 16.5 5
      vertex 15 20 13
      vertex 15 16.5 13
    endloop
  endfacet
  facet normal 1 0 0
    outer loop
      vertex 15 20 13
      vertex 15 16.5 5
      vertex 15 20 0
    endloop
  endfacet
  facet normal 1 -0 0
    outer loop
      vertex 15 10 5
      vertex 15 20 0
      vertex 15 16.5 5
    endloop
  endfacet
  facet normal 1 0 0
    outer loop
      vertex 15 10 5
      vertex 15 0 0
      vertex 15 20 0
    endloop
  endfacet
  facet normal 1 0 0
    outer loop
      vertex 15 0 0
      vertex 15 10 5
      vertex 15 0 13
    endloop
  endfacet
  facet normal 0 0 -1
    outer loop
      vertex 0 0 0
      vertex 15 20 0
      vertex 15 0 0
    endloop
  endfacet
  facet normal -0 0 -1
    outer loop
      vertex 15 20 0
      vertex 0 0 0
      vertex 0 20 0
    endloop
  endfacet
  facet normal 0 -1 0
    outer loop
      vertex 0 0 0
      vertex 15 0 13
      vertex 0 0 13
    endloop
  endfacet
  facet normal 0 -1 -0
    outer loop
      vertex 15 0 13
      vertex 0 0 0
      vertex 15 0 0
    endloop
  endfacet
  facet normal 0 1 -0
    outer loop
      vertex 15 20 0
      vertex 0 20 13
      vertex 15 20 13
    endloop
  endfacet
  facet normal 0 1 0
    outer loop
      vertex 0 20 13
      vertex 15 20 0
      vertex 0 20 0
    endloop
  endfacet
  facet normal 0 -1 0
    outer loop
      vertex 0 16.5 5
      vertex 15 16.5 13
      vertex 0 16.5 13
    endloop
  endfacet
  facet normal 0 -1 -0
    outer loop
      vertex 15 16.5 13
      vertex 0 16.5 5
      vertex 15 16.5 5
    endloop
  endfacet
  facet normal -0 0 1
    outer loop
      vertex 0 16.5 5
      vertex 15 10 5
      vertex 15 16.5 5
    endloop
  endfacet
  facet normal 0 0 1
    outer loop
      vertex 15 10 5
      vertex 0 16.5 5
      vertex 0 10 5
    endloop
  endfacet
  facet normal 0 1 0
    outer loop
      vertex 15 10 13
      vertex 14.4142 10 6
      vertex 14.4142 10 13
    endloop
  endfacet
  facet normal 0 1 0
    outer loop
      vertex 15 10 5
      vertex 13 10 6
      vertex 14.4142 10 6
    endloop
  endfacet
  facet normal 0 1 0
    outer loop
      vertex 13 10 6
      vertex 15 10 5
      vertex 12.4142 10 6
    endloop
  endfacet
  facet normal 0 1 0
    outer loop
      vertex 12.4142 10 6
      vertex 15 10 5
      vertex 11 10 6
    endloop
  endfacet
  facet normal 0 1 0
    outer loop
      vertex 11 10 6
      vertex 15 10 5
      vertex 10.4142 10 6
    endloop
  endfacet
  facet normal 0 1 0
    outer loop
      vertex 10.4142 10 6
      vertex 15 10 5
      vertex 9 10 6
    endloop
  endfacet
  facet normal 0 1 0
    outer loop
      vertex 9 10 6
      vertex 15 10 5
      vertex 8.41421 10 6
    endloop
  endfacet
  facet normal 0 1 0
    outer loop
      vertex 8.41421 10 6
      vertex 15 10 5
      vertex 7 10 6
    endloop
  endfacet
  facet normal 0 1 0
    outer loop
      vertex 0 10 5
      vertex 7 10 6
      vertex 15 10 5
    endloop
  endfacet
  facet normal 0 1 0
    outer loop
      vertex 7 10 6
      vertex 0 10 5
      vertex 6.41421 10 6
    endloop
  endfacet
  facet normal 0 1 0
    outer loop
      vertex 6.41421 10 6
      vertex 0 10 5
      vertex 5 10 6
    endloop
  endfacet
  facet normal 0 1 0
    outer loop
      vertex 5 10 6
      vertex 0 10 5
      vertex 4.41421 10 6
    endloop
  endfacet
  facet normal 0 1 -0
    outer loop
      vertex 15 10 5
      vertex 14.4142 10 6
      vertex 15 10 13
    endloop
  endfacet
  facet normal 0 1 -0
    outer loop
      vertex 13 10 6
      vertex 12.4142 10 13
      vertex 13 10 13
    endloop
  endfacet
  facet normal 0 1 0
    outer loop
      vertex 12.4142 10 13
      vertex 13 10 6
      vertex 12.4142 10 6
    endloop
  endfacet
  facet normal 0 1 -0
    outer loop
      vertex 11 10 6
      vertex 10.4142 10 13
      vertex 11 10 13
    endloop
  endfacet
  facet normal 0 1 0
    outer loop
      vertex 10.4142 10 13
      vertex 11 10 6
      vertex 10.4142 10 6
    endloop
  endfacet
  facet normal 0 1 -0
    outer loop
      vertex 9 10 6
      vertex 8.41421 10 13
      vertex 9 10 13
    endloop
  endfacet
  facet normal 0 1 0
    outer loop
      vertex 8.41421 10 13
      vertex 9 10 6
      vertex 8.41421 10 6
    endloop
  endfacet
  facet normal 0 1 -0
    outer loop
      vertex 7 10 6
      vertex 6.41421 10 13
      vertex 7 10 13
    endloop
  endfacet
  facet normal 0 1 0
    outer loop
      vertex 6.41421 10 13
      vertex 7 10 6
      vertex 6.41421 10 6
    endloop
  endfacet
  facet normal 0 1 -0
    outer loop
      vertex 5 10 6
      vertex 4.41421 10 13
      vertex 5 10 13
    endloop
  endfacet
  facet normal 0 1 0
    outer loop
      vertex 4.41421 10 13
      vertex 5 10 6
      vertex 4.41421 10 6
    endloop
  endfacet
  facet normal 0 1 -0
    outer loop
      vertex 3 10 6
      vertex 0 10 13
      vertex 3 10 13
    endloop
  endfacet
  facet normal 0 1 0
    outer loop
      vertex 3 10 6
      vertex 0 10 5
      vertex 0 10 13
    endloop
  endfacet
  facet normal 0 1 0
    outer loop
      vertex 4.41421 10 6
      vertex 0 10 5
      vertex 3 10 6
    endloop
  endfacet
  facet normal 0.707107 0.707107 0
    outer loop
      vertex 4.41421 10 13
      vertex -0.949747 15.364 6
      vertex -0.949747 15.364 13
    endloop
  endfacet
  facet normal 0.707107 0.707107 0
    outer loop
      vertex -0.949747 15.364 6
      vertex 4.41421 10 13
      vertex 4.41421 10 6
    endloop
  endfacet
  facet normal -0.707107 -0.707107 0
    outer loop
      vertex 3 10 6
      vertex -1.65685 14.6569 13
      vertex -1.65685 14.6569 6
    endloop
  endfacet
  facet normal -0.707107 -0.707107 0
    outer loop
      vertex -1.65685 14.6569 13
      vertex 3 10 6
      vertex 3 10 13
    endloop
  endfacet
  facet normal 0 0 -1
    outer loop
      vertex 3 10 6
      vertex -0.949747 15.364 6
      vertex 4.41421 10 6
    endloop
  endfacet
  facet normal 0 -0 -1
    outer loop
      vertex -0.949747 15.364 6
      vertex 3 10 6
      vertex -1.65685 14.6569 6
    endloop
  endfacet
  facet normal -0.707107 0.707107 0
    outer loop
      vertex -1.65685 14.6569 6
      vertex -0.949747 15.364 13
      vertex -0.949747 15.364 6
    endloop
  endfacet
  facet normal -0.707107 0.707107 0
    outer loop
      vertex -0.949747 15.364 13
      vertex -1.65685 14.6569 6
      vertex -1.65685 14.6569 13
    endloop
  endfacet
  facet normal 0.707107 0.707107 -0
    outer loop
      vertex 6.41421 10 6
      vertex 1.05025 15.364 13
      vertex 6.41421 10 13
    endloop
  endfacet
  facet normal 0.707107 0.707107 0
    outer loop
      vertex 1.05025 15.364 13
      vertex 6.41421 10 6
      vertex 1.05025 15.364 6
    endloop
  endfacet
  facet normal -0.707107 -0.707107 0
    outer loop
      vertex 0.343145 14.6569 6
      vertex 5 10 13
      vertex 0.343145 14.6569 13
    endloop
  endfacet
  facet normal -0.707107 -0.707107 -0
    outer loop
      vertex 5 10 13
      vertex 0.343145 14.6569 6
      vertex 5 10 6
    endloop
  endfacet
  facet normal 0 0 -1
    outer loop
      vertex 5 10 6
      vertex 1.05025 15.364 6
      vertex 6.41421 10 6
    endloop
  endfacet
  facet normal 0 -0 -1
    outer loop
      vertex 1.05025 15.364 6
      vertex 5 10 6
      vertex 0.343145 14.6569 6
    endloop
  endfacet
  facet normal -0.707107 0.707107 0
    outer loop
      vertex 0.343145 14.6569 6
      vertex 1.05025 15.364 13
      vertex 1.05025 15.364 6
    endloop
  endfacet
  facet normal -0.707107 0.707107 0
    outer loop
      vertex 1.05025 15.364 13
      vertex 0.343145 14.6569 6
      vertex 0.343145 14.6569 13
    endloop
  endfacet
  facet normal 0.707107 0.707107 -0
    outer loop
      vertex 8.41421 10 6
      vertex 3.05025 15.364 13
      vertex 8.41421 10 13
    endloop
  endfacet
  facet normal 0.707107 0.707107 0
    outer loop
      vertex 3.05025 15.364 13
      vertex 8.41421 10 6
      vertex 3.05025 15.364 6
    endloop
  endfacet
  facet normal -0.707107 -0.707107 0
    outer loop
      vertex 2.34315 14.6569 6
      vertex 7 10 13
      vertex 2.34315 14.6569 13
    endloop
  endfacet
  facet normal -0.707107 -0.707107 -0
    outer loop
      vertex 7 10 13
      vertex 2.34315 14.6569 6
      vertex 7 10 6
    endloop
  endfacet
  facet normal 0 0 -1
    outer loop
      vertex 7 10 6
      vertex 3.05025 15.364 6
      vertex 8.41421 10 6
    endloop
  endfacet
  facet normal 0 -0 -1
    outer loop
      vertex 3.05025 15.364 6
      vertex 7 10 6
      vertex 2.34315 14.6569 6
    endloop
  endfacet
  facet normal -0.707107 0.707107 0
    outer loop
      vertex 2.34315 14.6569 6
      vertex 3.05025 15.364 13
      vertex 3.05025 15.364 6
    endloop
  endfacet
  facet normal -0.707107 0.707107 0
    outer loop
      vertex 3.05025 15.364 13
      vertex 2.34315 14.6569 6
      vertex 2.34315 14.6569 13
    endloop
  endfacet
  facet normal 0.707107 0.707107 -0
    outer loop
      vertex 10.4142 10 6
      vertex 5.05025 15.364 13
      vertex 10.4142 10 13
    endloop
  endfacet
  facet normal 0.707107 0.707107 0
    outer loop
      vertex 5.05025 15.364 13
      vertex 10.4142 10 6
      vertex 5.05025 15.364 6
    endloop
  endfacet
  facet normal -0.707107 -0.707107 0
    outer loop
      vertex 4.34315 14.6569 6
      vertex 9 10 13
      vertex 4.34315 14.6569 13
    endloop
  endfacet
  facet normal -0.707107 -0.707107 -0
    outer loop
      vertex 9 10 13
      vertex 4.34315 14.6569 6
      vertex 9 10 6
    endloop
  endfacet
  facet normal 0 0 -1
    outer loop
      vertex 9 10 6
      vertex 5.05025 15.364 6
      vertex 10.4142 10 6
    endloop
  endfacet
  facet normal 0 -0 -1
    outer loop
      vertex 5.05025 15.364 6
      vertex 9 10 6
      vertex 4.34315 14.6569 6
    endloop
  endfacet
  facet normal -0.707107 0.707107 0
    outer loop
      vertex 4.34315 14.6569 6
      vertex 5.05025 15.364 13
      vertex 5.05025 15.364 6
    endloop
  endfacet
  facet normal -0.707107 0.707107 0
    outer loop
      vertex 5.05025 15.364 13
      vertex 4.34315 14.6569 6
      vertex 4.34315 14.6569 13
    endloop
  endfacet
  facet normal 0.707107 0.707107 -0
    outer loop
      vertex 12.4142 10 6
      vertex 7.05025 15.364 13
      vertex 12.4142 10 13
    endloop
  endfacet
  facet normal 0.707107 0.707107 0
    outer loop
      vertex 7.05025 15.364 13
      vertex 12.4142 10 6
      vertex 7.05025 15.364 6
    endloop
  endfacet
  facet normal -0.707107 0.707107 0
    outer loop
      vertex 6.34315 14.6569 6
      vertex 7.05025 15.364 13
      vertex 7.05025 15.364 6
    endloop
  endfacet
  facet normal -0.707107 0.707107 0
    outer loop
      vertex 7.05025 15.364 13
      vertex 6.34315 14.6569 6
      vertex 6.34315 14.6569 13
    endloop
  endfacet
  facet normal -0.707107 -0.707107 0
    outer loop
      vertex 6.34315 14.6569 6
      vertex 11 10 13
      vertex 6.34315 14.6569 13
    endloop
  endfacet
  facet normal -0.707107 -0.707107 -0
    outer loop
      vertex 11 10 13
      vertex 6.34315 14.6569 6
      vertex 11 10 6
    endloop
  endfacet
  facet normal 0 0 -1
    outer loop
      vertex 11 10 6
      vertex 7.05025 15.364 6
      vertex 12.4142 10 6
    endloop
  endfacet
  facet normal 0 -0 -1
    outer loop
      vertex 7.05025 15.364 6
      vertex 11 10 6
      vertex 6.34315 14.6569 6
    endloop
  endfacet
  facet normal 0.707107 0.707107 -0
    outer loop
      vertex 14.4142 10 6
      vertex 9.05025 15.364 13
      vertex 14.4142 10 13
    endloop
  endfacet
  facet normal 0.707107 0.707107 0
    outer loop
      vertex 9.05025 15.364 13
      vertex 14.4142 10 6
      vertex 9.05025 15.364 6
    endloop
  endfacet
  facet normal -0.707107 0.707107 0
    outer loop
      vertex 8.34315 14.6569 6
      vertex 9.05025 15.364 13
      vertex 9.05025 15.364 6
    endloop
  endfacet
  facet normal -0.707107 0.707107 0
    outer loop
      vertex 9.05025 15.364 13
      vertex 8.34315 14.6569 6
      vertex 8.34315 14.6569 13
    endloop
  endfacet
  facet normal -0.707107 -0.707107 0
    outer loop
      vertex 8.34315 14.6569 6
      vertex 13 10 13
      vertex 8.34315 14.6569 13
    endloop
  endfacet
  facet normal -0.707107 -0.707107 -0
    outer loop
      vertex 13 10 13
      vertex 8.34315 14.6569 6
      vertex 13 10 6
    endloop
  endfacet
  facet normal 0 0 -1
    outer loop
      vertex 13 10 6
      vertex 9.05025 15.364 6
      vertex 14.4142 10 6
    endloop
  endfacet
  facet normal 0 -0 -1
    outer loop
      vertex 9.05025 15.364 6
      vertex 13 10 6
      vertex 8.34315 14.6569 6
    endloop
  endfacet
endsolid OpenSCAD_Model
