solid OpenSCAD_Model
  facet normal -0.975916 -0.218144 0
    outer loop
      vertex 32.7778 6.29293 11.5
      vertex 32.6832 6.71596 20
      vertex 32.6832 6.71596 11.5
    endloop
  endfacet
  facet normal -0.975916 -0.218144 0
    outer loop
      vertex 32.6832 6.71596 20
      vertex 32.7778 6.29293 11.5
      vertex 32.7778 6.29293 20
    endloop
  endfacet
  facet normal -0.0314109 -0.999507 0
    outer loop
      vertex 26 11.9 11.5
      vertex 26.4333 11.8864 20
      vertex 26 11.9 20
    endloop
  endfacet
  facet normal -0.0314109 -0.999507 -0
    outer loop
      vertex 26.4333 11.8864 20
      vertex 26 11.9 11.5
      vertex 26.4333 11.8864 11.5
    endloop
  endfacet
  facet normal -0.707105 -0.707109 0
    outer loop
      vertex 30.7234 10.0299 11.5
      vertex 31.0299 9.72337 20
      vertex 30.7234 10.0299 20
    endloop
  endfacet
  facet normal -0.707105 -0.707109 -0
    outer loop
      vertex 31.0299 9.72337 20
      vertex 30.7234 10.0299 11.5
      vertex 31.0299 9.72337 11.5
    endloop
  endfacet
  facet normal -0.960294 -0.278991 0
    outer loop
      vertex 32.6832 6.71596 11.5
      vertex 32.5623 7.13222 20
      vertex 32.5623 7.13222 11.5
    endloop
  endfacet
  facet normal -0.960294 -0.278991 0
    outer loop
      vertex 32.5623 7.13222 20
      vertex 32.6832 6.71596 11.5
      vertex 32.6832 6.71596 20
    endloop
  endfacet
  facet normal -0.397147 -0.917755 0
    outer loop
      vertex 28.5401 11.4155 11.5
      vertex 28.9379 11.2433 20
      vertex 28.5401 11.4155 20
    endloop
  endfacet
  facet normal -0.397147 -0.917755 -0
    outer loop
      vertex 28.9379 11.2433 20
      vertex 28.5401 11.4155 11.5
      vertex 28.9379 11.2433 11.5
    endloop
  endfacet
  facet normal -0.917753 -0.397153 0
    outer loop
      vertex 32.4155 7.54006 11.5
      vertex 32.2433 7.93788 20
      vertex 32.2433 7.93788 11.5
    endloop
  endfacet
  facet normal -0.917753 -0.397153 0
    outer loop
      vertex 32.2433 7.93788 20
      vertex 32.4155 7.54006 11.5
      vertex 32.4155 7.54006 20
    endloop
  endfacet
  facet normal -0.860742 -0.509041 0
    outer loop
      vertex 32.0465 8.3241 11.5
      vertex 31.8259 8.6972 20
      vertex 31.8259 8.6972 11.5
    endloop
  endfacet
  facet normal -0.860742 -0.509041 0
    outer loop
      vertex 31.8259 8.6972 20
      vertex 32.0465 8.3241 11.5
      vertex 32.0465 8.3241 20
    endloop
  endfacet
  facet normal -0.750114 -0.661309 0
    outer loop
      vertex 31.3165 9.39822 11.5
      vertex 31.0299 9.72337 20
      vertex 31.0299 9.72337 11.5
    endloop
  endfacet
  facet normal -0.750114 -0.661309 0
    outer loop
      vertex 31.0299 9.72337 20
      vertex 31.3165 9.39822 11.5
      vertex 31.3165 9.39822 20
    endloop
  endfacet
  facet normal -0.827081 -0.562083 0
    outer loop
      vertex 31.8259 8.6972 11.5
      vertex 31.5822 9.05572 20
      vertex 31.5822 9.05572 11.5
    endloop
  endfacet
  facet normal -0.827081 -0.562083 0
    outer loop
      vertex 31.5822 9.05572 20
      vertex 31.8259 8.6972 11.5
      vertex 31.8259 8.6972 20
    endloop
  endfacet
  facet normal -0.218142 -0.975917 0
    outer loop
      vertex 27.2929 11.7778 11.5
      vertex 27.716 11.6832 20
      vertex 27.2929 11.7778 20
    endloop
  endfacet
  facet normal -0.218142 -0.975917 -0
    outer loop
      vertex 27.716 11.6832 20
      vertex 27.2929 11.7778 11.5
      vertex 27.716 11.6832 11.5
    endloop
  endfacet
  facet normal -0.0941092 -0.995562 0
    outer loop
      vertex 26.4333 11.8864 11.5
      vertex 26.8648 11.8456 20
      vertex 26.4333 11.8864 20
    endloop
  endfacet
  facet normal -0.0941092 -0.995562 -0
    outer loop
      vertex 26.8648 11.8456 20
      vertex 26.4333 11.8864 11.5
      vertex 26.8648 11.8456 11.5
    endloop
  endfacet
  facet normal -0.612909 -0.790154 0
    outer loop
      vertex 30.0557 10.5822 11.5
      vertex 30.3982 10.3165 20
      vertex 30.0557 10.5822 20
    endloop
  endfacet
  facet normal -0.612909 -0.790154 -0
    outer loop
      vertex 30.3982 10.3165 20
      vertex 30.0557 10.5822 11.5
      vertex 30.3982 10.3165 11.5
    endloop
  endfacet
  facet normal -0.453991 -0.891006 0
    outer loop
      vertex 28.9379 11.2433 11.5
      vertex 29.3241 11.0465 20
      vertex 28.9379 11.2433 20
    endloop
  endfacet
  facet normal -0.453991 -0.891006 -0
    outer loop
      vertex 29.3241 11.0465 20
      vertex 28.9379 11.2433 11.5
      vertex 29.3241 11.0465 11.5
    endloop
  endfacet
  facet normal -0.562083 -0.827081 0
    outer loop
      vertex 29.6972 10.8259 11.5
      vertex 30.0557 10.5822 20
      vertex 29.6972 10.8259 20
    endloop
  endfacet
  facet normal -0.562083 -0.827081 -0
    outer loop
      vertex 30.0557 10.5822 20
      vertex 29.6972 10.8259 11.5
      vertex 30.0557 10.5822 11.5
    endloop
  endfacet
  facet normal 0 0 1
    outer loop
      vertex 15 16.5 11.5
      vertex 0 16.5 11.5
      vertex 15 11.9 11.5
    endloop
  endfacet
  facet normal 0 0 1
    outer loop
      vertex 32.8864 5.43325 11.5
      vertex 30.9901 5.31395 11.5
      vertex 31 5 11.5
    endloop
  endfacet
  facet normal 0 0 1
    outer loop
      vertex 31.3165 9.39822 11.5
      vertex 30.9606 5.62667 11.5
      vertex 30.9901 5.31395 11.5
    endloop
  endfacet
  facet normal 0 0 1
    outer loop
      vertex 31.3165 9.39822 11.5
      vertex 30.9114 5.93691 11.5
      vertex 30.9606 5.62667 11.5
    endloop
  endfacet
  facet normal 0 0 1
    outer loop
      vertex 31.3165 9.39822 11.5
      vertex 30.8429 6.24345 11.5
      vertex 30.9114 5.93691 11.5
    endloop
  endfacet
  facet normal 0 0 1
    outer loop
      vertex 31.3165 9.39822 11.5
      vertex 30.7553 6.54508 11.5
      vertex 30.8429 6.24345 11.5
    endloop
  endfacet
  facet normal 0 0 1
    outer loop
      vertex 29.6448 8.42274 11.5
      vertex 31.0299 9.72337 11.5
      vertex 30.7234 10.0299 11.5
    endloop
  endfacet
  facet normal 0 0 1
    outer loop
      vertex 31.3165 9.39822 11.5
      vertex 30.6489 6.84062 11.5
      vertex 30.7553 6.54508 11.5
    endloop
  endfacet
  facet normal 0 0 1
    outer loop
      vertex 31.3165 9.39822 11.5
      vertex 30.5241 7.1289 11.5
      vertex 30.6489 6.84062 11.5
    endloop
  endfacet
  facet normal 0 0 1
    outer loop
      vertex 29.4227 8.64484 11.5
      vertex 30.7234 10.0299 11.5
      vertex 30.3982 10.3165 11.5
    endloop
  endfacet
  facet normal 0 0 1
    outer loop
      vertex 31.3165 9.39822 11.5
      vertex 30.3815 7.40877 11.5
      vertex 30.5241 7.1289 11.5
    endloop
  endfacet
  facet normal 0 0 1
    outer loop
      vertex 31.3165 9.39822 11.5
      vertex 30.2216 7.67913 11.5
      vertex 30.3815 7.40877 11.5
    endloop
  endfacet
  facet normal 0 0 1
    outer loop
      vertex 29.1871 8.85257 11.5
      vertex 30.3982 10.3165 11.5
      vertex 30.0557 10.5822 11.5
    endloop
  endfacet
  facet normal 0 0 1
    outer loop
      vertex 31.3165 9.39822 11.5
      vertex 30.0451 7.93893 11.5
      vertex 30.2216 7.67913 11.5
    endloop
  endfacet
  facet normal 0 0 1
    outer loop
      vertex 31.3165 9.39822 11.5
      vertex 29.8526 8.18712 11.5
      vertex 30.0451 7.93893 11.5
    endloop
  endfacet
  facet normal 0 0 1
    outer loop
      vertex 28.9389 9.04508 11.5
      vertex 30.0557 10.5822 11.5
      vertex 29.6972 10.8259 11.5
    endloop
  endfacet
  facet normal 0 0 1
    outer loop
      vertex 31.0299 9.72337 11.5
      vertex 29.6448 8.42274 11.5
      vertex 29.8526 8.18712 11.5
    endloop
  endfacet
  facet normal 0 0 1
    outer loop
      vertex 30.7234 10.0299 11.5
      vertex 29.4227 8.64484 11.5
      vertex 29.6448 8.42274 11.5
    endloop
  endfacet
  facet normal 0 0 1
    outer loop
      vertex 28.6791 9.22164 11.5
      vertex 29.6972 10.8259 11.5
      vertex 29.3241 11.0465 11.5
    endloop
  endfacet
  facet normal 0 0 1
    outer loop
      vertex 30.3982 10.3165 11.5
      vertex 29.1871 8.85257 11.5
      vertex 29.4227 8.64484 11.5
    endloop
  endfacet
  facet normal 0 0 1
    outer loop
      vertex 30.0557 10.5822 11.5
      vertex 28.9389 9.04508 11.5
      vertex 29.1871 8.85257 11.5
    endloop
  endfacet
  facet normal 0 0 1
    outer loop
      vertex 28.4088 9.38153 11.5
      vertex 29.3241 11.0465 11.5
      vertex 28.9379 11.2433 11.5
    endloop
  endfacet
  facet normal 0 0 1
    outer loop
      vertex 29.6972 10.8259 11.5
      vertex 28.6791 9.22164 11.5
      vertex 28.9389 9.04508 11.5
    endloop
  endfacet
  facet normal 0 0 1
    outer loop
      vertex 28.1289 9.52413 11.5
      vertex 28.9379 11.2433 11.5
      vertex 28.5401 11.4155 11.5
    endloop
  endfacet
  facet normal 0 0 1
    outer loop
      vertex 29.3241 11.0465 11.5
      vertex 28.4088 9.38153 11.5
      vertex 28.6791 9.22164 11.5
    endloop
  endfacet
  facet normal 0 0 1
    outer loop
      vertex 27.8406 9.64888 11.5
      vertex 28.5401 11.4155 11.5
      vertex 28.1322 11.5623 11.5
    endloop
  endfacet
  facet normal 0 0 1
    outer loop
      vertex 28.9379 11.2433 11.5
      vertex 28.1289 9.52413 11.5
      vertex 28.4088 9.38153 11.5
    endloop
  endfacet
  facet normal 0 0 1
    outer loop
      vertex 28.5401 11.4155 11.5
      vertex 27.8406 9.64888 11.5
      vertex 28.1289 9.52413 11.5
    endloop
  endfacet
  facet normal 0 0 1
    outer loop
      vertex 27.5451 9.75528 11.5
      vertex 28.1322 11.5623 11.5
      vertex 27.716 11.6832 11.5
    endloop
  endfacet
  facet normal 0 0 1
    outer loop
      vertex 28.1322 11.5623 11.5
      vertex 27.5451 9.75528 11.5
      vertex 27.8406 9.64888 11.5
    endloop
  endfacet
  facet normal 0 0 1
    outer loop
      vertex 27.2435 9.84292 11.5
      vertex 27.716 11.6832 11.5
      vertex 27.2929 11.7778 11.5
    endloop
  endfacet
  facet normal 0 0 1
    outer loop
      vertex 27.716 11.6832 11.5
      vertex 27.2435 9.84292 11.5
      vertex 27.5451 9.75528 11.5
    endloop
  endfacet
  facet normal 0 0 1
    outer loop
      vertex 27.2929 11.7778 11.5
      vertex 26.9369 9.91144 11.5
      vertex 27.2435 9.84292 11.5
    endloop
  endfacet
  facet normal 0 0 1
    outer loop
      vertex 26.8648 11.8456 11.5
      vertex 26.9369 9.91144 11.5
      vertex 27.2929 11.7778 11.5
    endloop
  endfacet
  facet normal 0 0 1
    outer loop
      vertex 26.8648 11.8456 11.5
      vertex 26.6267 9.96057 11.5
      vertex 26.9369 9.91144 11.5
    endloop
  endfacet
  facet normal 0 0 1
    outer loop
      vertex 26.4333 11.8864 11.5
      vertex 26.6267 9.96057 11.5
      vertex 26.8648 11.8456 11.5
    endloop
  endfacet
  facet normal 0 0 1
    outer loop
      vertex 26.4333 11.8864 11.5
      vertex 26.314 9.99013 11.5
      vertex 26.6267 9.96057 11.5
    endloop
  endfacet
  facet normal 0 0 1
    outer loop
      vertex 26 11.9 11.5
      vertex 26.314 9.99013 11.5
      vertex 26.4333 11.8864 11.5
    endloop
  endfacet
  facet normal 0 0 1
    outer loop
      vertex 26 11.9 11.5
      vertex 26 10 11.5
      vertex 26.314 9.99013 11.5
    endloop
  endfacet
  facet normal -0 0 1
    outer loop
      vertex 15 11.9 11.5
      vertex 26 10 11.5
      vertex 26 11.9 11.5
    endloop
  endfacet
  facet normal 0 0 1
    outer loop
      vertex 15 11.9 11.5
      vertex 0 10 11.5
      vertex 26 10 11.5
    endloop
  endfacet
  facet normal 0 0 1
    outer loop
      vertex 0 10 11.5
      vertex 15 11.9 11.5
      vertex 0 16.5 11.5
    endloop
  endfacet
  facet normal 0 0 1
    outer loop
      vertex 31 5 11.5
      vertex 32.9 5 11.5
      vertex 32.8864 5.43325 11.5
    endloop
  endfacet
  facet normal 0 0 1
    outer loop
      vertex 30.9901 5.31395 11.5
      vertex 32.8864 5.43325 11.5
      vertex 32.8456 5.8648 11.5
    endloop
  endfacet
  facet normal 0 0 1
    outer loop
      vertex 30.9901 5.31395 11.5
      vertex 32.8456 5.8648 11.5
      vertex 32.7778 6.29293 11.5
    endloop
  endfacet
  facet normal 0 0 1
    outer loop
      vertex 30.9901 5.31395 11.5
      vertex 32.7778 6.29293 11.5
      vertex 32.6832 6.71596 11.5
    endloop
  endfacet
  facet normal 0 0 1
    outer loop
      vertex 30.9901 5.31395 11.5
      vertex 32.6832 6.71596 11.5
      vertex 32.5623 7.13222 11.5
    endloop
  endfacet
  facet normal 0 0 1
    outer loop
      vertex 30.9901 5.31395 11.5
      vertex 32.5623 7.13222 11.5
      vertex 32.4155 7.54006 11.5
    endloop
  endfacet
  facet normal 0 0 1
    outer loop
      vertex 30.9901 5.31395 11.5
      vertex 32.4155 7.54006 11.5
      vertex 32.2433 7.93788 11.5
    endloop
  endfacet
  facet normal 0 0 1
    outer loop
      vertex 30.9901 5.31395 11.5
      vertex 32.2433 7.93788 11.5
      vertex 32.0465 8.3241 11.5
    endloop
  endfacet
  facet normal 0 0 1
    outer loop
      vertex 30.9901 5.31395 11.5
      vertex 32.0465 8.3241 11.5
      vertex 31.8259 8.6972 11.5
    endloop
  endfacet
  facet normal 0 0 1
    outer loop
      vertex 30.9901 5.31395 11.5
      vertex 31.8259 8.6972 11.5
      vertex 31.5822 9.05572 11.5
    endloop
  endfacet
  facet normal 0 0 1
    outer loop
      vertex 30.9901 5.31395 11.5
      vertex 31.5822 9.05572 11.5
      vertex 31.3165 9.39822 11.5
    endloop
  endfacet
  facet normal 0 0 1
    outer loop
      vertex 29.8526 8.18712 11.5
      vertex 31.3165 9.39822 11.5
      vertex 31.0299 9.72337 11.5
    endloop
  endfacet
  facet normal 0 0 1
    outer loop
      vertex 32.9 5 11.5
      vertex 31 5 11.5
      vertex 32.9 0 11.5
    endloop
  endfacet
  facet normal 0 0 1
    outer loop
      vertex 32.9 0 11.5
      vertex 31 5 11.5
      vertex 31 0 11.5
    endloop
  endfacet
  facet normal -0.987689 -0.156427 0
    outer loop
      vertex 32.8456 5.8648 11.5
      vertex 32.7778 6.29293 20
      vertex 32.7778 6.29293 11.5
    endloop
  endfacet
  facet normal -0.987689 -0.156427 0
    outer loop
      vertex 32.7778 6.29293 20
      vertex 32.8456 5.8648 11.5
      vertex 32.8456 5.8648 20
    endloop
  endfacet
  facet normal -0.940881 -0.338736 0
    outer loop
      vertex 32.5623 7.13222 11.5
      vertex 32.4155 7.54006 20
      vertex 32.4155 7.54006 11.5
    endloop
  endfacet
  facet normal -0.940881 -0.338736 0
    outer loop
      vertex 32.4155 7.54006 20
      vertex 32.5623 7.13222 11.5
      vertex 32.5623 7.13222 20
    endloop
  endfacet
  facet normal -0.790152 -0.612911 0
    outer loop
      vertex 31.5822 9.05572 11.5
      vertex 31.3165 9.39822 20
      vertex 31.3165 9.39822 11.5
    endloop
  endfacet
  facet normal -0.790152 -0.612911 0
    outer loop
      vertex 31.3165 9.39822 20
      vertex 31.5822 9.05572 11.5
      vertex 31.5822 9.05572 20
    endloop
  endfacet
  facet normal -0.891008 -0.453988 0
    outer loop
      vertex 32.2433 7.93788 11.5
      vertex 32.0465 8.3241 20
      vertex 32.0465 8.3241 11.5
    endloop
  endfacet
  facet normal -0.891008 -0.453988 0
    outer loop
      vertex 32.0465 8.3241 20
      vertex 32.2433 7.93788 11.5
      vertex 32.2433 7.93788 20
    endloop
  endfacet
  facet normal -0.278992 -0.960293 0
    outer loop
      vertex 27.716 11.6832 11.5
      vertex 28.1322 11.5623 20
      vertex 27.716 11.6832 20
    endloop
  endfacet
  facet normal -0.278992 -0.960293 -0
    outer loop
      vertex 28.1322 11.5623 20
      vertex 27.716 11.6832 11.5
      vertex 28.1322 11.5623 11.5
    endloop
  endfacet
  facet normal -0.156434 -0.987688 0
    outer loop
      vertex 26.8648 11.8456 11.5
      vertex 27.2929 11.7778 20
      vertex 26.8648 11.8456 20
    endloop
  endfacet
  facet normal -0.156434 -0.987688 -0
    outer loop
      vertex 27.2929 11.7778 20
      vertex 26.8648 11.8456 11.5
      vertex 27.2929 11.7778 11.5
    endloop
  endfacet
  facet normal -0.509042 -0.860742 0
    outer loop
      vertex 29.3241 11.0465 11.5
      vertex 29.6972 10.8259 20
      vertex 29.3241 11.0465 20
    endloop
  endfacet
  facet normal -0.509042 -0.860742 -0
    outer loop
      vertex 29.6972 10.8259 20
      vertex 29.3241 11.0465 11.5
      vertex 29.6972 10.8259 11.5
    endloop
  endfacet
  facet normal -0.661311 -0.750112 0
    outer loop
      vertex 30.3982 10.3165 11.5
      vertex 30.7234 10.0299 20
      vertex 30.3982 10.3165 20
    endloop
  endfacet
  facet normal -0.661311 -0.750112 -0
    outer loop
      vertex 30.7234 10.0299 20
      vertex 30.3982 10.3165 11.5
      vertex 30.7234 10.0299 11.5
    endloop
  endfacet
  facet normal -0.999506 -0.0314175 0
    outer loop
      vertex 32.9 5 11.5
      vertex 32.8864 5.43325 20
      vertex 32.8864 5.43325 11.5
    endloop
  endfacet
  facet normal -0.999506 -0.0314175 0
    outer loop
      vertex 32.8864 5.43325 20
      vertex 32.9 5 11.5
      vertex 32.9 5 20
    endloop
  endfacet
  facet normal -0.995562 -0.0941116 0
    outer loop
      vertex 32.8864 5.43325 11.5
      vertex 32.8456 5.8648 20
      vertex 32.8456 5.8648 11.5
    endloop
  endfacet
  facet normal -0.995562 -0.0941116 0
    outer loop
      vertex 32.8456 5.8648 20
      vertex 32.8864 5.43325 11.5
      vertex 32.8864 5.43325 20
    endloop
  endfacet
  facet normal -0.338738 -0.940881 0
    outer loop
      vertex 28.1322 11.5623 11.5
      vertex 28.5401 11.4155 20
      vertex 28.1322 11.5623 20
    endloop
  endfacet
  facet normal -0.338738 -0.940881 -0
    outer loop
      vertex 28.5401 11.4155 20
      vertex 28.1322 11.5623 11.5
      vertex 28.5401 11.4155 11.5
    endloop
  endfacet
  facet normal 0.999507 0.0314119 0
    outer loop
      vertex 31 5 20
      vertex 30.9901 5.31395 11.5
      vertex 30.9901 5.31395 20
    endloop
  endfacet
  facet normal 0.999507 0.0314119 0
    outer loop
      vertex 30.9901 5.31395 11.5
      vertex 31 5 20
      vertex 31 5 11.5
    endloop
  endfacet
  facet normal 0.0314118 0.999507 -0
    outer loop
      vertex 26.314 9.99013 11.5
      vertex 26 10 20
      vertex 26.314 9.99013 20
    endloop
  endfacet
  facet normal 0.0314118 0.999507 0
    outer loop
      vertex 26 10 20
      vertex 26.314 9.99013 11.5
      vertex 26 10 11.5
    endloop
  endfacet
  facet normal 0.707105 0.707108 -0
    outer loop
      vertex 29.6448 8.42274 11.5
      vertex 29.4227 8.64484 20
      vertex 29.6448 8.42274 20
    endloop
  endfacet
  facet normal 0.707105 0.707108 0
    outer loop
      vertex 29.4227 8.64484 20
      vertex 29.6448 8.42274 11.5
      vertex 29.4227 8.64484 11.5
    endloop
  endfacet
  facet normal 0.917756 0.397145 0
    outer loop
      vertex 30.6489 6.84062 20
      vertex 30.5241 7.1289 11.5
      vertex 30.5241 7.1289 20
    endloop
  endfacet
  facet normal 0.917756 0.397145 0
    outer loop
      vertex 30.5241 7.1289 11.5
      vertex 30.6489 6.84062 20
      vertex 30.6489 6.84062 11.5
    endloop
  endfacet
  facet normal 0.397149 0.917754 -0
    outer loop
      vertex 28.1289 9.52413 11.5
      vertex 27.8406 9.64888 20
      vertex 28.1289 9.52413 20
    endloop
  endfacet
  facet normal 0.397149 0.917754 0
    outer loop
      vertex 27.8406 9.64888 20
      vertex 28.1289 9.52413 11.5
      vertex 27.8406 9.64888 11.5
    endloop
  endfacet
  facet normal 0.562081 0.827082 -0
    outer loop
      vertex 28.9389 9.04508 11.5
      vertex 28.6791 9.22164 20
      vertex 28.9389 9.04508 20
    endloop
  endfacet
  facet normal 0.562081 0.827082 0
    outer loop
      vertex 28.6791 9.22164 20
      vertex 28.9389 9.04508 11.5
      vertex 28.6791 9.22164 11.5
    endloop
  endfacet
  facet normal 0.975916 0.218146 0
    outer loop
      vertex 30.9114 5.93691 20
      vertex 30.8429 6.24345 11.5
      vertex 30.8429 6.24345 20
    endloop
  endfacet
  facet normal 0.975916 0.218146 0
    outer loop
      vertex 30.8429 6.24345 11.5
      vertex 30.9114 5.93691 20
      vertex 30.9114 5.93691 11.5
    endloop
  endfacet
  facet normal 0.960295 0.278985 0
    outer loop
      vertex 30.8429 6.24345 20
      vertex 30.7553 6.54508 11.5
      vertex 30.7553 6.54508 20
    endloop
  endfacet
  facet normal 0.960295 0.278985 0
    outer loop
      vertex 30.7553 6.54508 11.5
      vertex 30.8429 6.24345 20
      vertex 30.8429 6.24345 11.5
    endloop
  endfacet
  facet normal 0.827085 0.562077 0
    outer loop
      vertex 30.2216 7.67913 20
      vertex 30.0451 7.93893 11.5
      vertex 30.0451 7.93893 20
    endloop
  endfacet
  facet normal 0.827085 0.562077 0
    outer loop
      vertex 30.0451 7.93893 11.5
      vertex 30.2216 7.67913 20
      vertex 30.2216 7.67913 11.5
    endloop
  endfacet
  facet normal 0.750113 0.661309 0
    outer loop
      vertex 29.8526 8.18712 20
      vertex 29.6448 8.42274 11.5
      vertex 29.6448 8.42274 20
    endloop
  endfacet
  facet normal 0.750113 0.661309 0
    outer loop
      vertex 29.6448 8.42274 11.5
      vertex 29.8526 8.18712 20
      vertex 29.8526 8.18712 11.5
    endloop
  endfacet
  facet normal 0.891005 0.453993 0
    outer loop
      vertex 30.5241 7.1289 20
      vertex 30.3815 7.40877 11.5
      vertex 30.3815 7.40877 20
    endloop
  endfacet
  facet normal 0.891005 0.453993 0
    outer loop
      vertex 30.3815 7.40877 11.5
      vertex 30.5241 7.1289 20
      vertex 30.5241 7.1289 11.5
    endloop
  endfacet
  facet normal 0.278991 0.960294 -0
    outer loop
      vertex 27.5451 9.75528 11.5
      vertex 27.2435 9.84292 20
      vertex 27.5451 9.75528 20
    endloop
  endfacet
  facet normal 0.278991 0.960294 0
    outer loop
      vertex 27.2435 9.84292 20
      vertex 27.5451 9.75528 11.5
      vertex 27.2435 9.84292 11.5
    endloop
  endfacet
  facet normal 0.338741 0.94088 -0
    outer loop
      vertex 27.8406 9.64888 11.5
      vertex 27.5451 9.75528 20
      vertex 27.8406 9.64888 20
    endloop
  endfacet
  facet normal 0.338741 0.94088 0
    outer loop
      vertex 27.5451 9.75528 20
      vertex 27.8406 9.64888 11.5
      vertex 27.5451 9.75528 11.5
    endloop
  endfacet
  facet normal 0.156435 0.987688 -0
    outer loop
      vertex 26.9369 9.91144 11.5
      vertex 26.6267 9.96057 20
      vertex 26.9369 9.91144 20
    endloop
  endfacet
  facet normal 0.156435 0.987688 0
    outer loop
      vertex 26.6267 9.96057 20
      vertex 26.9369 9.91144 11.5
      vertex 26.6267 9.96057 11.5
    endloop
  endfacet
  facet normal 0.50904 0.860743 -0
    outer loop
      vertex 28.6791 9.22164 11.5
      vertex 28.4088 9.38153 20
      vertex 28.6791 9.22164 20
    endloop
  endfacet
  facet normal 0.50904 0.860743 0
    outer loop
      vertex 28.4088 9.38153 20
      vertex 28.6791 9.22164 11.5
      vertex 28.4088 9.38153 11.5
    endloop
  endfacet
  facet normal 0.612911 0.790152 -0
    outer loop
      vertex 29.1871 8.85257 11.5
      vertex 28.9389 9.04508 20
      vertex 29.1871 8.85257 20
    endloop
  endfacet
  facet normal 0.612911 0.790152 0
    outer loop
      vertex 28.9389 9.04508 20
      vertex 29.1871 8.85257 11.5
      vertex 28.9389 9.04508 11.5
    endloop
  endfacet
  facet normal 0.987688 0.156434 0
    outer loop
      vertex 30.9606 5.62667 20
      vertex 30.9114 5.93691 11.5
      vertex 30.9114 5.93691 20
    endloop
  endfacet
  facet normal 0.987688 0.156434 0
    outer loop
      vertex 30.9114 5.93691 11.5
      vertex 30.9606 5.62667 20
      vertex 30.9606 5.62667 11.5
    endloop
  endfacet
  facet normal 0.995562 0.0941082 0
    outer loop
      vertex 30.9901 5.31395 20
      vertex 30.9606 5.62667 11.5
      vertex 30.9606 5.62667 20
    endloop
  endfacet
  facet normal 0.995562 0.0941082 0
    outer loop
      vertex 30.9606 5.62667 11.5
      vertex 30.9901 5.31395 20
      vertex 30.9901 5.31395 11.5
    endloop
  endfacet
  facet normal 0.218142 0.975917 -0
    outer loop
      vertex 27.2435 9.84292 11.5
      vertex 26.9369 9.91144 20
      vertex 27.2435 9.84292 20
    endloop
  endfacet
  facet normal 0.218142 0.975917 0
    outer loop
      vertex 26.9369 9.91144 20
      vertex 27.2435 9.84292 11.5
      vertex 26.9369 9.91144 11.5
    endloop
  endfacet
  facet normal 0.0941082 0.995562 -0
    outer loop
      vertex 26.6267 9.96057 11.5
      vertex 26.314 9.99013 20
      vertex 26.6267 9.96057 20
    endloop
  endfacet
  facet normal 0.0941082 0.995562 0
    outer loop
      vertex 26.314 9.99013 20
      vertex 26.6267 9.96057 11.5
      vertex 26.314 9.99013 11.5
    endloop
  endfacet
  facet normal 0.661309 0.750113 -0
    outer loop
      vertex 29.4227 8.64484 11.5
      vertex 29.1871 8.85257 20
      vertex 29.4227 8.64484 20
    endloop
  endfacet
  facet normal 0.661309 0.750113 0
    outer loop
      vertex 29.1871 8.85257 20
      vertex 29.4227 8.64484 11.5
      vertex 29.1871 8.85257 11.5
    endloop
  endfacet
  facet normal 0.940879 0.338742 0
    outer loop
      vertex 30.7553 6.54508 20
      vertex 30.6489 6.84062 11.5
      vertex 30.6489 6.84062 20
    endloop
  endfacet
  facet normal 0.940879 0.338742 0
    outer loop
      vertex 30.6489 6.84062 11.5
      vertex 30.7553 6.54508 20
      vertex 30.7553 6.54508 11.5
    endloop
  endfacet
  facet normal 0.790153 0.61291 0
    outer loop
      vertex 30.0451 7.93893 20
      vertex 29.8526 8.18712 11.5
      vertex 29.8526 8.18712 20
    endloop
  endfacet
  facet normal 0.790153 0.61291 0
    outer loop
      vertex 29.8526 8.18712 11.5
      vertex 30.0451 7.93893 20
      vertex 30.0451 7.93893 11.5
    endloop
  endfacet
  facet normal 0.86074 0.509044 0
    outer loop
      vertex 30.3815 7.40877 20
      vertex 30.2216 7.67913 11.5
      vertex 30.2216 7.67913 20
    endloop
  endfacet
  facet normal 0.86074 0.509044 0
    outer loop
      vertex 30.2216 7.67913 11.5
      vertex 30.3815 7.40877 20
      vertex 30.3815 7.40877 11.5
    endloop
  endfacet
  facet normal 0.45399 0.891007 -0
    outer loop
      vertex 28.4088 9.38153 11.5
      vertex 28.1289 9.52413 20
      vertex 28.4088 9.38153 20
    endloop
  endfacet
  facet normal 0.45399 0.891007 0
    outer loop
      vertex 28.1289 9.52413 20
      vertex 28.4088 9.38153 11.5
      vertex 28.1289 9.52413 11.5
    endloop
  endfacet
  facet normal 1 -0 0
    outer loop
      vertex 31 0 20
      vertex 31 5 11.5
      vertex 31 5 20
    endloop
  endfacet
  facet normal 1 0 0
    outer loop
      vertex 31 5 11.5
      vertex 31 0 20
      vertex 31 0 11.5
    endloop
  endfacet
  facet normal -1 0 0
    outer loop
      vertex 32.9 0 11.5
      vertex 32.9 5 20
      vertex 32.9 5 11.5
    endloop
  endfacet
  facet normal -1 -0 0
    outer loop
      vertex 32.9 5 20
      vertex 32.9 0 11.5
      vertex 32.9 0 20
    endloop
  endfacet
  facet normal 0 1 -0
    outer loop
      vertex 26 10 11.5
      vertex 0 10 20
      vertex 26 10 20
    endloop
  endfacet
  facet normal 0 1 0
    outer loop
      vertex 0 10 20
      vertex 26 10 11.5
      vertex 0 10 11.5
    endloop
  endfacet
  facet normal 0 -1 0
    outer loop
      vertex 15 11.9 11.5
      vertex 26 11.9 20
      vertex 15 11.9 20
    endloop
  endfacet
  facet normal 0 -1 -0
    outer loop
      vertex 26 11.9 20
      vertex 15 11.9 11.5
      vertex 26 11.9 11.5
    endloop
  endfacet
  facet normal 0.218142 -0.975917 0
    outer loop
      vertex 12.284 11.6832 0
      vertex 12.7071 11.7778 8.5
      vertex 12.284 11.6832 8.5
    endloop
  endfacet
  facet normal 0.218142 -0.975917 0
    outer loop
      vertex 12.7071 11.7778 8.5
      vertex 12.284 11.6832 0
      vertex 12.7071 11.7778 0
    endloop
  endfacet
  facet normal 0.999507 -0.0314109 0
    outer loop
      vertex 7.1 5 8.5
      vertex 7.11362 5.43325 0
      vertex 7.11362 5.43325 8.5
    endloop
  endfacet
  facet normal 0.999507 -0.0314109 0
    outer loop
      vertex 7.11362 5.43325 0
      vertex 7.1 5 8.5
      vertex 7.1 5 0
    endloop
  endfacet
  facet normal 0.707107 -0.707107 0
    outer loop
      vertex 8.97012 9.72337 8.5
      vertex 9.27663 10.0299 0
      vertex 9.27663 10.0299 8.5
    endloop
  endfacet
  facet normal 0.707107 -0.707107 0
    outer loop
      vertex 9.27663 10.0299 0
      vertex 8.97012 9.72337 8.5
      vertex 8.97012 9.72337 0
    endloop
  endfacet
  facet normal 0.278993 -0.960293 0
    outer loop
      vertex 11.8678 11.5623 0
      vertex 12.284 11.6832 8.5
      vertex 11.8678 11.5623 8.5
    endloop
  endfacet
  facet normal 0.278993 -0.960293 0
    outer loop
      vertex 12.284 11.6832 8.5
      vertex 11.8678 11.5623 0
      vertex 12.284 11.6832 0
    endloop
  endfacet
  facet normal 0.917754 -0.397149 0
    outer loop
      vertex 7.58454 7.54006 8.5
      vertex 7.75669 7.93788 0
      vertex 7.75669 7.93788 8.5
    endloop
  endfacet
  facet normal 0.917754 -0.397149 0
    outer loop
      vertex 7.75669 7.93788 0
      vertex 7.58454 7.54006 8.5
      vertex 7.58454 7.54006 0
    endloop
  endfacet
  facet normal 0.397149 -0.917754 0
    outer loop
      vertex 11.0621 11.2433 0
      vertex 11.4599 11.4155 8.5
      vertex 11.0621 11.2433 8.5
    endloop
  endfacet
  facet normal 0.397149 -0.917754 0
    outer loop
      vertex 11.4599 11.4155 8.5
      vertex 11.0621 11.2433 0
      vertex 11.4599 11.4155 0
    endloop
  endfacet
  facet normal 0.509041 -0.860742 0
    outer loop
      vertex 10.3028 10.8259 0
      vertex 10.6759 11.0465 8.5
      vertex 10.3028 10.8259 8.5
    endloop
  endfacet
  facet normal 0.509041 -0.860742 0
    outer loop
      vertex 10.6759 11.0465 8.5
      vertex 10.3028 10.8259 0
      vertex 10.6759 11.0465 0
    endloop
  endfacet
  facet normal 0.661311 -0.750112 0
    outer loop
      vertex 9.27663 10.0299 0
      vertex 9.60178 10.3165 8.5
      vertex 9.27663 10.0299 8.5
    endloop
  endfacet
  facet normal 0.661311 -0.750112 0
    outer loop
      vertex 9.60178 10.3165 8.5
      vertex 9.27663 10.0299 0
      vertex 9.60178 10.3165 0
    endloop
  endfacet
  facet normal 0.562083 -0.827081 0
    outer loop
      vertex 9.94428 10.5822 0
      vertex 10.3028 10.8259 8.5
      vertex 9.94428 10.5822 8.5
    endloop
  endfacet
  facet normal 0.562083 -0.827081 0
    outer loop
      vertex 10.3028 10.8259 8.5
      vertex 9.94428 10.5822 0
      vertex 10.3028 10.8259 0
    endloop
  endfacet
  facet normal 0.975917 -0.218142 0
    outer loop
      vertex 7.22222 6.29293 8.5
      vertex 7.31678 6.71596 0
      vertex 7.31678 6.71596 8.5
    endloop
  endfacet
  facet normal 0.975917 -0.218142 0
    outer loop
      vertex 7.31678 6.71596 0
      vertex 7.22222 6.29293 8.5
      vertex 7.22222 6.29293 0
    endloop
  endfacet
  facet normal 0.995562 -0.0941094 0
    outer loop
      vertex 7.11362 5.43325 8.5
      vertex 7.15441 5.8648 0
      vertex 7.15441 5.8648 8.5
    endloop
  endfacet
  facet normal 0.995562 -0.0941094 0
    outer loop
      vertex 7.15441 5.8648 0
      vertex 7.11362 5.43325 8.5
      vertex 7.11362 5.43325 0
    endloop
  endfacet
  facet normal 0.790154 -0.612908 0
    outer loop
      vertex 8.41778 9.05572 8.5
      vertex 8.68346 9.39822 0
      vertex 8.68346 9.39822 8.5
    endloop
  endfacet
  facet normal 0.790154 -0.612908 0
    outer loop
      vertex 8.68346 9.39822 0
      vertex 8.41778 9.05572 8.5
      vertex 8.41778 9.05572 0
    endloop
  endfacet
  facet normal 0.891006 -0.453991 0
    outer loop
      vertex 7.75669 7.93788 8.5
      vertex 7.95348 8.3241 0
      vertex 7.95348 8.3241 8.5
    endloop
  endfacet
  facet normal 0.891006 -0.453991 0
    outer loop
      vertex 7.95348 8.3241 0
      vertex 7.75669 7.93788 8.5
      vertex 7.75669 7.93788 0
    endloop
  endfacet
  facet normal 0.827081 -0.562083 0
    outer loop
      vertex 8.17414 8.6972 8.5
      vertex 8.41778 9.05572 0
      vertex 8.41778 9.05572 8.5
    endloop
  endfacet
  facet normal 0.827081 -0.562083 0
    outer loop
      vertex 8.41778 9.05572 0
      vertex 8.17414 8.6972 8.5
      vertex 8.17414 8.6972 0
    endloop
  endfacet
  facet normal 0.156434 -0.987688 0
    outer loop
      vertex 12.7071 11.7778 0
      vertex 13.1352 11.8456 8.5
      vertex 12.7071 11.7778 8.5
    endloop
  endfacet
  facet normal 0.156434 -0.987688 0
    outer loop
      vertex 13.1352 11.8456 8.5
      vertex 12.7071 11.7778 0
      vertex 13.1352 11.8456 0
    endloop
  endfacet
  facet normal 0.338736 -0.940881 0
    outer loop
      vertex 11.4599 11.4155 0
      vertex 11.8678 11.5623 8.5
      vertex 11.4599 11.4155 8.5
    endloop
  endfacet
  facet normal 0.338736 -0.940881 0
    outer loop
      vertex 11.8678 11.5623 8.5
      vertex 11.4599 11.4155 0
      vertex 11.8678 11.5623 0
    endloop
  endfacet
  facet normal 0.612908 -0.790154 0
    outer loop
      vertex 9.60178 10.3165 0
      vertex 9.94428 10.5822 8.5
      vertex 9.60178 10.3165 8.5
    endloop
  endfacet
  facet normal 0.612908 -0.790154 0
    outer loop
      vertex 9.94428 10.5822 8.5
      vertex 9.60178 10.3165 0
      vertex 9.94428 10.5822 0
    endloop
  endfacet
  facet normal 0.453991 -0.891006 0
    outer loop
      vertex 10.6759 11.0465 0
      vertex 11.0621 11.2433 8.5
      vertex 10.6759 11.0465 8.5
    endloop
  endfacet
  facet normal 0.453991 -0.891006 0
    outer loop
      vertex 11.0621 11.2433 8.5
      vertex 10.6759 11.0465 0
      vertex 11.0621 11.2433 0
    endloop
  endfacet
  facet normal 0.960293 -0.278993 0
    outer loop
      vertex 7.31678 6.71596 8.5
      vertex 7.43771 7.13222 0
      vertex 7.43771 7.13222 8.5
    endloop
  endfacet
  facet normal 0.960293 -0.278993 0
    outer loop
      vertex 7.43771 7.13222 0
      vertex 7.31678 6.71596 8.5
      vertex 7.31678 6.71596 0
    endloop
  endfacet
  facet normal 0.987688 -0.156434 0
    outer loop
      vertex 7.15441 5.8648 8.5
      vertex 7.22222 6.29293 0
      vertex 7.22222 6.29293 8.5
    endloop
  endfacet
  facet normal 0.987688 -0.156434 0
    outer loop
      vertex 7.22222 6.29293 0
      vertex 7.15441 5.8648 8.5
      vertex 7.15441 5.8648 0
    endloop
  endfacet
  facet normal 0.860742 -0.509041 0
    outer loop
      vertex 7.95348 8.3241 8.5
      vertex 8.17414 8.6972 0
      vertex 8.17414 8.6972 8.5
    endloop
  endfacet
  facet normal 0.860742 -0.509041 0
    outer loop
      vertex 8.17414 8.6972 0
      vertex 7.95348 8.3241 8.5
      vertex 7.95348 8.3241 0
    endloop
  endfacet
  facet normal 0.750112 -0.661311 0
    outer loop
      vertex 8.68346 9.39822 8.5
      vertex 8.97012 9.72337 0
      vertex 8.97012 9.72337 8.5
    endloop
  endfacet
  facet normal 0.750112 -0.661311 0
    outer loop
      vertex 8.97012 9.72337 0
      vertex 8.68346 9.39822 8.5
      vertex 8.68346 9.39822 0
    endloop
  endfacet
  facet normal 0 0 -1
    outer loop
      vertex 7.1 5 8.5
      vertex 9 5 8.5
      vertex 9 0 8.5
    endloop
  endfacet
  facet normal 0 0 -1
    outer loop
      vertex 9 5 8.5
      vertex 8.68346 9.39822 8.5
      vertex 8.97012 9.72337 8.5
    endloop
  endfacet
  facet normal 0 0 -1
    outer loop
      vertex 9 5 8.5
      vertex 8.41778 9.05572 8.5
      vertex 8.68346 9.39822 8.5
    endloop
  endfacet
  facet normal 0 0 -1
    outer loop
      vertex 9 5 8.5
      vertex 8.17414 8.6972 8.5
      vertex 8.41778 9.05572 8.5
    endloop
  endfacet
  facet normal 0 0 -1
    outer loop
      vertex 9 5 8.5
      vertex 7.95348 8.3241 8.5
      vertex 8.17414 8.6972 8.5
    endloop
  endfacet
  facet normal 0 0 -1
    outer loop
      vertex 9 5 8.5
      vertex 7.75669 7.93788 8.5
      vertex 7.95348 8.3241 8.5
    endloop
  endfacet
  facet normal 0 0 -1
    outer loop
      vertex 9 5 8.5
      vertex 7.58454 7.54006 8.5
      vertex 7.75669 7.93788 8.5
    endloop
  endfacet
  facet normal 0 0 -1
    outer loop
      vertex 9 5 8.5
      vertex 7.43771 7.13222 8.5
      vertex 7.58454 7.54006 8.5
    endloop
  endfacet
  facet normal 0 0 -1
    outer loop
      vertex 9 5 8.5
      vertex 7.31678 6.71596 8.5
      vertex 7.43771 7.13222 8.5
    endloop
  endfacet
  facet normal 0 0 -1
    outer loop
      vertex 9 5 8.5
      vertex 7.22222 6.29293 8.5
      vertex 7.31678 6.71596 8.5
    endloop
  endfacet
  facet normal 0 0 -1
    outer loop
      vertex 9 5 8.5
      vertex 7.15441 5.8648 8.5
      vertex 7.22222 6.29293 8.5
    endloop
  endfacet
  facet normal 0 0 -1
    outer loop
      vertex 9 5 8.5
      vertex 7.11362 5.43325 8.5
      vertex 7.15441 5.8648 8.5
    endloop
  endfacet
  facet normal 0 0 -1
    outer loop
      vertex 7.1 5 8.5
      vertex 9 0 8.5
      vertex 7.1 0 8.5
    endloop
  endfacet
  facet normal 0 0 -1
    outer loop
      vertex 9 5 8.5
      vertex 7.1 5 8.5
      vertex 7.11362 5.43325 8.5
    endloop
  endfacet
  facet normal 0 0 -1
    outer loop
      vertex 25 10 8.5
      vertex 40 5.5 8.5
      vertex 25 5.5 8.5
    endloop
  endfacet
  facet normal 0 0 -1
    outer loop
      vertex 40 5.5 8.5
      vertex 25 10 8.5
      vertex 40 11.9 8.5
    endloop
  endfacet
  facet normal 0 0 -1
    outer loop
      vertex 14 11.9 8.5
      vertex 25 10 8.5
      vertex 14 10 8.5
    endloop
  endfacet
  facet normal 0 0 -1
    outer loop
      vertex 25 10 8.5
      vertex 14 11.9 8.5
      vertex 40 11.9 8.5
    endloop
  endfacet
  facet normal 0 0 -1
    outer loop
      vertex 13.686 9.99013 8.5
      vertex 14 11.9 8.5
      vertex 14 10 8.5
    endloop
  endfacet
  facet normal 0 0 -1
    outer loop
      vertex 13.686 9.99013 8.5
      vertex 13.5667 11.8864 8.5
      vertex 14 11.9 8.5
    endloop
  endfacet
  facet normal 0 0 -1
    outer loop
      vertex 13.3733 9.96057 8.5
      vertex 13.5667 11.8864 8.5
      vertex 13.686 9.99013 8.5
    endloop
  endfacet
  facet normal 0 0 -1
    outer loop
      vertex 13.3733 9.96057 8.5
      vertex 13.1352 11.8456 8.5
      vertex 13.5667 11.8864 8.5
    endloop
  endfacet
  facet normal 0 0 -1
    outer loop
      vertex 13.0631 9.91144 8.5
      vertex 13.1352 11.8456 8.5
      vertex 13.3733 9.96057 8.5
    endloop
  endfacet
  facet normal 0 0 -1
    outer loop
      vertex 12.7071 11.7778 8.5
      vertex 13.0631 9.91144 8.5
      vertex 12.7566 9.84292 8.5
    endloop
  endfacet
  facet normal 0 0 -1
    outer loop
      vertex 13.0631 9.91144 8.5
      vertex 12.7071 11.7778 8.5
      vertex 13.1352 11.8456 8.5
    endloop
  endfacet
  facet normal 0 0 -1
    outer loop
      vertex 12.284 11.6832 8.5
      vertex 12.7566 9.84292 8.5
      vertex 12.4549 9.75528 8.5
    endloop
  endfacet
  facet normal 0 0 -1
    outer loop
      vertex 12.7566 9.84292 8.5
      vertex 12.284 11.6832 8.5
      vertex 12.7071 11.7778 8.5
    endloop
  endfacet
  facet normal 0 0 -1
    outer loop
      vertex 11.8678 11.5623 8.5
      vertex 12.4549 9.75528 8.5
      vertex 12.1594 9.64888 8.5
    endloop
  endfacet
  facet normal 0 0 -1
    outer loop
      vertex 11.4599 11.4155 8.5
      vertex 12.1594 9.64888 8.5
      vertex 11.8711 9.52413 8.5
    endloop
  endfacet
  facet normal 0 0 -1
    outer loop
      vertex 12.4549 9.75528 8.5
      vertex 11.8678 11.5623 8.5
      vertex 12.284 11.6832 8.5
    endloop
  endfacet
  facet normal 0 0 -1
    outer loop
      vertex 11.0621 11.2433 8.5
      vertex 11.8711 9.52413 8.5
      vertex 11.5912 9.38153 8.5
    endloop
  endfacet
  facet normal 0 0 -1
    outer loop
      vertex 12.1594 9.64888 8.5
      vertex 11.4599 11.4155 8.5
      vertex 11.8678 11.5623 8.5
    endloop
  endfacet
  facet normal 0 0 -1
    outer loop
      vertex 10.6759 11.0465 8.5
      vertex 11.5912 9.38153 8.5
      vertex 11.3209 9.22164 8.5
    endloop
  endfacet
  facet normal 0 0 -1
    outer loop
      vertex 11.8711 9.52413 8.5
      vertex 11.0621 11.2433 8.5
      vertex 11.4599 11.4155 8.5
    endloop
  endfacet
  facet normal 0 0 -1
    outer loop
      vertex 10.3028 10.8259 8.5
      vertex 11.3209 9.22164 8.5
      vertex 11.0611 9.04508 8.5
    endloop
  endfacet
  facet normal 0 0 -1
    outer loop
      vertex 9.94428 10.5822 8.5
      vertex 11.0611 9.04508 8.5
      vertex 10.8129 8.85257 8.5
    endloop
  endfacet
  facet normal 0 0 -1
    outer loop
      vertex 11.5912 9.38153 8.5
      vertex 10.6759 11.0465 8.5
      vertex 11.0621 11.2433 8.5
    endloop
  endfacet
  facet normal 0 0 -1
    outer loop
      vertex 9.60178 10.3165 8.5
      vertex 10.8129 8.85257 8.5
      vertex 10.5773 8.64484 8.5
    endloop
  endfacet
  facet normal 0 0 -1
    outer loop
      vertex 9.27663 10.0299 8.5
      vertex 10.5773 8.64484 8.5
      vertex 10.3552 8.42274 8.5
    endloop
  endfacet
  facet normal 0 0 -1
    outer loop
      vertex 11.3209 9.22164 8.5
      vertex 10.3028 10.8259 8.5
      vertex 10.6759 11.0465 8.5
    endloop
  endfacet
  facet normal 0 0 -1
    outer loop
      vertex 8.97012 9.72337 8.5
      vertex 10.3552 8.42274 8.5
      vertex 10.1474 8.18712 8.5
    endloop
  endfacet
  facet normal 0 0 -1
    outer loop
      vertex 8.97012 9.72337 8.5
      vertex 10.1474 8.18712 8.5
      vertex 9.95492 7.93893 8.5
    endloop
  endfacet
  facet normal 0 0 -1
    outer loop
      vertex 11.0611 9.04508 8.5
      vertex 9.94428 10.5822 8.5
      vertex 10.3028 10.8259 8.5
    endloop
  endfacet
  facet normal 0 0 -1
    outer loop
      vertex 8.97012 9.72337 8.5
      vertex 9.95492 7.93893 8.5
      vertex 9.77836 7.67913 8.5
    endloop
  endfacet
  facet normal 0 0 -1
    outer loop
      vertex 8.97012 9.72337 8.5
      vertex 9.77836 7.67913 8.5
      vertex 9.61847 7.40877 8.5
    endloop
  endfacet
  facet normal 0 0 -1
    outer loop
      vertex 10.8129 8.85257 8.5
      vertex 9.60178 10.3165 8.5
      vertex 9.94428 10.5822 8.5
    endloop
  endfacet
  facet normal 0 0 -1
    outer loop
      vertex 8.97012 9.72337 8.5
      vertex 9.61847 7.40877 8.5
      vertex 9.47587 7.1289 8.5
    endloop
  endfacet
  facet normal 0 0 -1
    outer loop
      vertex 8.97012 9.72337 8.5
      vertex 9.47587 7.1289 8.5
      vertex 9.35112 6.84062 8.5
    endloop
  endfacet
  facet normal 0 0 -1
    outer loop
      vertex 10.5773 8.64484 8.5
      vertex 9.27663 10.0299 8.5
      vertex 9.60178 10.3165 8.5
    endloop
  endfacet
  facet normal 0 0 -1
    outer loop
      vertex 8.97012 9.72337 8.5
      vertex 9.35112 6.84062 8.5
      vertex 9.24472 6.54508 8.5
    endloop
  endfacet
  facet normal 0 0 -1
    outer loop
      vertex 8.97012 9.72337 8.5
      vertex 9.24472 6.54508 8.5
      vertex 9.15708 6.24345 8.5
    endloop
  endfacet
  facet normal 0 0 -1
    outer loop
      vertex 8.97012 9.72337 8.5
      vertex 9.15708 6.24345 8.5
      vertex 9.08856 5.93691 8.5
    endloop
  endfacet
  facet normal 0 0 -1
    outer loop
      vertex 8.97012 9.72337 8.5
      vertex 9.08856 5.93691 8.5
      vertex 9.03943 5.62667 8.5
    endloop
  endfacet
  facet normal 0 0 -1
    outer loop
      vertex 8.97012 9.72337 8.5
      vertex 9.03943 5.62667 8.5
      vertex 9.00987 5.31395 8.5
    endloop
  endfacet
  facet normal 0 0 -1
    outer loop
      vertex 10.3552 8.42274 8.5
      vertex 8.97012 9.72337 8.5
      vertex 9.27663 10.0299 8.5
    endloop
  endfacet
  facet normal 0 0 -1
    outer loop
      vertex 8.97012 9.72337 8.5
      vertex 9.00987 5.31395 8.5
      vertex 9 5 8.5
    endloop
  endfacet
  facet normal 0.0314109 -0.999507 0
    outer loop
      vertex 13.5667 11.8864 0
      vertex 14 11.9 8.5
      vertex 13.5667 11.8864 8.5
    endloop
  endfacet
  facet normal 0.0314109 -0.999507 0
    outer loop
      vertex 14 11.9 8.5
      vertex 13.5667 11.8864 0
      vertex 14 11.9 0
    endloop
  endfacet
  facet normal 0.0941094 -0.995562 0
    outer loop
      vertex 13.1352 11.8456 0
      vertex 13.5667 11.8864 8.5
      vertex 13.1352 11.8456 8.5
    endloop
  endfacet
  facet normal 0.0941094 -0.995562 0
    outer loop
      vertex 13.5667 11.8864 8.5
      vertex 13.1352 11.8456 0
      vertex 13.5667 11.8864 0
    endloop
  endfacet
  facet normal 0.940881 -0.338736 0
    outer loop
      vertex 7.43771 7.13222 8.5
      vertex 7.58454 7.54006 0
      vertex 7.58454 7.54006 8.5
    endloop
  endfacet
  facet normal 0.940881 -0.338736 0
    outer loop
      vertex 7.58454 7.54006 0
      vertex 7.43771 7.13222 8.5
      vertex 7.43771 7.13222 0
    endloop
  endfacet
  facet normal -0.0314119 0.999507 0
    outer loop
      vertex 14 10 0
      vertex 13.686 9.99013 8.5
      vertex 14 10 8.5
    endloop
  endfacet
  facet normal -0.0314119 0.999507 0
    outer loop
      vertex 13.686 9.99013 8.5
      vertex 14 10 0
      vertex 13.686 9.99013 0
    endloop
  endfacet
  facet normal -0.999507 0.0314119 0
    outer loop
      vertex 9 5 0
      vertex 9.00987 5.31395 8.5
      vertex 9.00987 5.31395 0
    endloop
  endfacet
  facet normal -0.999507 0.0314119 0
    outer loop
      vertex 9.00987 5.31395 8.5
      vertex 9 5 0
      vertex 9 5 8.5
    endloop
  endfacet
  facet normal -0.707107 0.707107 0
    outer loop
      vertex 10.3552 8.42274 0
      vertex 10.5773 8.64484 8.5
      vertex 10.5773 8.64484 0
    endloop
  endfacet
  facet normal -0.707107 0.707107 0
    outer loop
      vertex 10.5773 8.64484 8.5
      vertex 10.3552 8.42274 0
      vertex 10.3552 8.42274 8.5
    endloop
  endfacet
  facet normal -0.397148 0.917755 0
    outer loop
      vertex 12.1594 9.64888 0
      vertex 11.8711 9.52413 8.5
      vertex 12.1594 9.64888 8.5
    endloop
  endfacet
  facet normal -0.397148 0.917755 0
    outer loop
      vertex 11.8711 9.52413 8.5
      vertex 12.1594 9.64888 0
      vertex 11.8711 9.52413 0
    endloop
  endfacet
  facet normal -0.917755 0.397148 0
    outer loop
      vertex 9.35112 6.84062 0
      vertex 9.47587 7.1289 8.5
      vertex 9.47587 7.1289 0
    endloop
  endfacet
  facet normal -0.917755 0.397148 0
    outer loop
      vertex 9.47587 7.1289 8.5
      vertex 9.35112 6.84062 0
      vertex 9.35112 6.84062 8.5
    endloop
  endfacet
  facet normal -0.827082 0.562081 0
    outer loop
      vertex 9.77836 7.67913 0
      vertex 9.95492 7.93893 8.5
      vertex 9.95492 7.93893 0
    endloop
  endfacet
  facet normal -0.827082 0.562081 0
    outer loop
      vertex 9.95492 7.93893 8.5
      vertex 9.77836 7.67913 0
      vertex 9.77836 7.67913 8.5
    endloop
  endfacet
  facet normal -0.218143 0.975917 0
    outer loop
      vertex 13.0631 9.91144 0
      vertex 12.7566 9.84292 8.5
      vertex 13.0631 9.91144 8.5
    endloop
  endfacet
  facet normal -0.218143 0.975917 0
    outer loop
      vertex 12.7566 9.84292 8.5
      vertex 13.0631 9.91144 0
      vertex 12.7566 9.84292 0
    endloop
  endfacet
  facet normal -0.278991 0.960294 0
    outer loop
      vertex 12.7566 9.84292 0
      vertex 12.4549 9.75528 8.5
      vertex 12.7566 9.84292 8.5
    endloop
  endfacet
  facet normal -0.278991 0.960294 0
    outer loop
      vertex 12.4549 9.75528 8.5
      vertex 12.7566 9.84292 0
      vertex 12.4549 9.75528 0
    endloop
  endfacet
  facet normal -0.562081 0.827082 0
    outer loop
      vertex 11.3209 9.22164 0
      vertex 11.0611 9.04508 8.5
      vertex 11.3209 9.22164 8.5
    endloop
  endfacet
  facet normal -0.562081 0.827082 0
    outer loop
      vertex 11.0611 9.04508 8.5
      vertex 11.3209 9.22164 0
      vertex 11.0611 9.04508 0
    endloop
  endfacet
  facet normal -0.661311 0.750112 0
    outer loop
      vertex 10.8129 8.85257 0
      vertex 10.5773 8.64484 8.5
      vertex 10.8129 8.85257 8.5
    endloop
  endfacet
  facet normal -0.661311 0.750112 0
    outer loop
      vertex 10.5773 8.64484 8.5
      vertex 10.8129 8.85257 0
      vertex 10.5773 8.64484 0
    endloop
  endfacet
  facet normal -0.453991 0.891006 0
    outer loop
      vertex 11.8711 9.52413 0
      vertex 11.5912 9.38153 8.5
      vertex 11.8711 9.52413 8.5
    endloop
  endfacet
  facet normal -0.453991 0.891006 0
    outer loop
      vertex 11.5912 9.38153 8.5
      vertex 11.8711 9.52413 0
      vertex 11.5912 9.38153 0
    endloop
  endfacet
  facet normal -0.960294 0.278991 0
    outer loop
      vertex 9.15708 6.24345 0
      vertex 9.24472 6.54508 8.5
      vertex 9.24472 6.54508 0
    endloop
  endfacet
  facet normal -0.960294 0.278991 0
    outer loop
      vertex 9.24472 6.54508 8.5
      vertex 9.15708 6.24345 0
      vertex 9.15708 6.24345 8.5
    endloop
  endfacet
  facet normal -0.94088 0.33874 0
    outer loop
      vertex 9.24472 6.54508 0
      vertex 9.35112 6.84062 8.5
      vertex 9.35112 6.84062 0
    endloop
  endfacet
  facet normal -0.94088 0.33874 0
    outer loop
      vertex 9.35112 6.84062 8.5
      vertex 9.24472 6.54508 0
      vertex 9.24472 6.54508 8.5
    endloop
  endfacet
  facet normal -0.987688 0.156434 0
    outer loop
      vertex 9.03943 5.62667 0
      vertex 9.08856 5.93691 8.5
      vertex 9.08856 5.93691 0
    endloop
  endfacet
  facet normal -0.987688 0.156434 0
    outer loop
      vertex 9.08856 5.93691 8.5
      vertex 9.03943 5.62667 0
      vertex 9.03943 5.62667 8.5
    endloop
  endfacet
  facet normal -0.860742 0.509042 0
    outer loop
      vertex 9.61847 7.40877 0
      vertex 9.77836 7.67913 8.5
      vertex 9.77836 7.67913 0
    endloop
  endfacet
  facet normal -0.860742 0.509042 0
    outer loop
      vertex 9.77836 7.67913 8.5
      vertex 9.61847 7.40877 0
      vertex 9.61847 7.40877 8.5
    endloop
  endfacet
  facet normal -0.790154 0.612908 0
    outer loop
      vertex 9.95492 7.93893 0
      vertex 10.1474 8.18712 8.5
      vertex 10.1474 8.18712 0
    endloop
  endfacet
  facet normal -0.790154 0.612908 0
    outer loop
      vertex 10.1474 8.18712 8.5
      vertex 9.95492 7.93893 0
      vertex 9.95492 7.93893 8.5
    endloop
  endfacet
  facet normal -0.156434 0.987688 0
    outer loop
      vertex 13.3733 9.96057 0
      vertex 13.0631 9.91144 8.5
      vertex 13.3733 9.96057 8.5
    endloop
  endfacet
  facet normal -0.156434 0.987688 0
    outer loop
      vertex 13.0631 9.91144 8.5
      vertex 13.3733 9.96057 0
      vertex 13.0631 9.91144 0
    endloop
  endfacet
  facet normal -0.0941082 0.995562 0
    outer loop
      vertex 13.686 9.99013 0
      vertex 13.3733 9.96057 8.5
      vertex 13.686 9.99013 8.5
    endloop
  endfacet
  facet normal -0.0941082 0.995562 0
    outer loop
      vertex 13.3733 9.96057 8.5
      vertex 13.686 9.99013 0
      vertex 13.3733 9.96057 0
    endloop
  endfacet
  facet normal -0.975917 0.218143 0
    outer loop
      vertex 9.08856 5.93691 0
      vertex 9.15708 6.24345 8.5
      vertex 9.15708 6.24345 0
    endloop
  endfacet
  facet normal -0.975917 0.218143 0
    outer loop
      vertex 9.15708 6.24345 8.5
      vertex 9.08856 5.93691 0
      vertex 9.08856 5.93691 8.5
    endloop
  endfacet
  facet normal -0.995562 0.0941082 0
    outer loop
      vertex 9.00987 5.31395 0
      vertex 9.03943 5.62667 8.5
      vertex 9.03943 5.62667 0
    endloop
  endfacet
  facet normal -0.995562 0.0941082 0
    outer loop
      vertex 9.03943 5.62667 8.5
      vertex 9.00987 5.31395 0
      vertex 9.00987 5.31395 8.5
    endloop
  endfacet
  facet normal -0.750112 0.661311 0
    outer loop
      vertex 10.1474 8.18712 0
      vertex 10.3552 8.42274 8.5
      vertex 10.3552 8.42274 0
    endloop
  endfacet
  facet normal -0.750112 0.661311 0
    outer loop
      vertex 10.3552 8.42274 8.5
      vertex 10.1474 8.18712 0
      vertex 10.1474 8.18712 8.5
    endloop
  endfacet
  facet normal -0.33874 0.94088 0
    outer loop
      vertex 12.4549 9.75528 0
      vertex 12.1594 9.64888 8.5
      vertex 12.4549 9.75528 8.5
    endloop
  endfacet
  facet normal -0.33874 0.94088 0
    outer loop
      vertex 12.1594 9.64888 8.5
      vertex 12.4549 9.75528 0
      vertex 12.1594 9.64888 0
    endloop
  endfacet
  facet normal -0.612908 0.790154 0
    outer loop
      vertex 11.0611 9.04508 0
      vertex 10.8129 8.85257 8.5
      vertex 11.0611 9.04508 8.5
    endloop
  endfacet
  facet normal -0.612908 0.790154 0
    outer loop
      vertex 10.8129 8.85257 8.5
      vertex 11.0611 9.04508 0
      vertex 10.8129 8.85257 0
    endloop
  endfacet
  facet normal -0.509042 0.860742 0
    outer loop
      vertex 11.5912 9.38153 0
      vertex 11.3209 9.22164 8.5
      vertex 11.5912 9.38153 8.5
    endloop
  endfacet
  facet normal -0.509042 0.860742 0
    outer loop
      vertex 11.3209 9.22164 8.5
      vertex 11.5912 9.38153 0
      vertex 11.3209 9.22164 0
    endloop
  endfacet
  facet normal -0.891006 0.453991 0
    outer loop
      vertex 9.47587 7.1289 0
      vertex 9.61847 7.40877 8.5
      vertex 9.61847 7.40877 0
    endloop
  endfacet
  facet normal -0.891006 0.453991 0
    outer loop
      vertex 9.61847 7.40877 8.5
      vertex 9.47587 7.1289 0
      vertex 9.47587 7.1289 8.5
    endloop
  endfacet
  facet normal 0 1 -0
    outer loop
      vertex 25 10 0
      vertex 14 10 8.5
      vertex 25 10 8.5
    endloop
  endfacet
  facet normal 0 1 0
    outer loop
      vertex 14 10 8.5
      vertex 25 10 0
      vertex 14 10 0
    endloop
  endfacet
  facet normal 0 -1 0
    outer loop
      vertex 14 11.9 0
      vertex 40 11.9 8.5
      vertex 14 11.9 8.5
    endloop
  endfacet
  facet normal 0 -1 -0
    outer loop
      vertex 40 11.9 8.5
      vertex 14 11.9 0
      vertex 40 11.9 0
    endloop
  endfacet
  facet normal -1 0 0
    outer loop
      vertex 9 0 0
      vertex 9 5 8.5
      vertex 9 5 0
    endloop
  endfacet
  facet normal -1 -0 0
    outer loop
      vertex 9 5 8.5
      vertex 9 0 0
      vertex 9 0 8.5
    endloop
  endfacet
  facet normal 1 -0 0
    outer loop
      vertex 7.1 0 8.5
      vertex 7.1 5 0
      vertex 7.1 5 8.5
    endloop
  endfacet
  facet normal 1 0 0
    outer loop
      vertex 7.1 5 0
      vertex 7.1 0 8.5
      vertex 7.1 0 0
    endloop
  endfacet
  facet normal -1 0 0
    outer loop
      vertex 0 20 0
      vertex 0 16.5 11.5
      vertex 0 20 20
    endloop
  endfacet
  facet normal -1 0 0
    outer loop
      vertex 0 20 0
      vertex 0 10 11.5
      vertex 0 16.5 11.5
    endloop
  endfacet
  facet normal -1 0 0
    outer loop
      vertex 0 0 0
      vertex 0 10 11.5
      vertex 0 20 0
    endloop
  endfacet
  facet normal -1 0 0
    outer loop
      vertex 0 0 20
      vertex 0 10 11.5
      vertex 0 0 0
    endloop
  endfacet
  facet normal -1 0 0
    outer loop
      vertex 0 10 11.5
      vertex 0 0 20
      vertex 0 10 20
    endloop
  endfacet
  facet normal -1 -0 0
    outer loop
      vertex 0 20 20
      vertex 0 16.5 11.5
      vertex 0 16.5 20
    endloop
  endfacet
  facet normal 0 0 1
    outer loop
      vertex 26 10 20
      vertex 31 5 20
      vertex 30.9901 5.31395 20
    endloop
  endfacet
  facet normal 0 0 1
    outer loop
      vertex 26 10 20
      vertex 30.9901 5.31395 20
      vertex 30.9606 5.62667 20
    endloop
  endfacet
  facet normal 0 0 1
    outer loop
      vertex 26 10 20
      vertex 30.9606 5.62667 20
      vertex 30.9114 5.93691 20
    endloop
  endfacet
  facet normal 0 0 1
    outer loop
      vertex 26 10 20
      vertex 30.9114 5.93691 20
      vertex 30.8429 6.24345 20
    endloop
  endfacet
  facet normal 0 0 1
    outer loop
      vertex 26 10 20
      vertex 30.8429 6.24345 20
      vertex 30.7553 6.54508 20
    endloop
  endfacet
  facet normal 0 0 1
    outer loop
      vertex 26 10 20
      vertex 30.7553 6.54508 20
      vertex 30.6489 6.84062 20
    endloop
  endfacet
  facet normal 0 0 1
    outer loop
      vertex 26 10 20
      vertex 30.6489 6.84062 20
      vertex 30.5241 7.1289 20
    endloop
  endfacet
  facet normal 0 0 1
    outer loop
      vertex 26 10 20
      vertex 30.5241 7.1289 20
      vertex 30.3815 7.40877 20
    endloop
  endfacet
  facet normal 0 0 1
    outer loop
      vertex 26 10 20
      vertex 30.3815 7.40877 20
      vertex 30.2216 7.67913 20
    endloop
  endfacet
  facet normal 0 0 1
    outer loop
      vertex 26 10 20
      vertex 30.2216 7.67913 20
      vertex 30.0451 7.93893 20
    endloop
  endfacet
  facet normal 0 0 1
    outer loop
      vertex 26 10 20
      vertex 30.0451 7.93893 20
      vertex 29.8526 8.18712 20
    endloop
  endfacet
  facet normal 0 0 1
    outer loop
      vertex 26 10 20
      vertex 29.8526 8.18712 20
      vertex 29.6448 8.42274 20
    endloop
  endfacet
  facet normal 0 0 1
    outer loop
      vertex 26 10 20
      vertex 29.6448 8.42274 20
      vertex 29.4227 8.64484 20
    endloop
  endfacet
  facet normal 0 0 1
    outer loop
      vertex 26 10 20
      vertex 29.4227 8.64484 20
      vertex 29.1871 8.85257 20
    endloop
  endfacet
  facet normal 0 0 1
    outer loop
      vertex 26 10 20
      vertex 29.1871 8.85257 20
      vertex 28.9389 9.04508 20
    endloop
  endfacet
  facet normal 0 0 1
    outer loop
      vertex 26 10 20
      vertex 28.9389 9.04508 20
      vertex 28.6791 9.22164 20
    endloop
  endfacet
  facet normal 0 0 1
    outer loop
      vertex 26 10 20
      vertex 28.6791 9.22164 20
      vertex 28.4088 9.38153 20
    endloop
  endfacet
  facet normal 0 0 1
    outer loop
      vertex 26 10 20
      vertex 28.4088 9.38153 20
      vertex 28.1289 9.52413 20
    endloop
  endfacet
  facet normal 0 0 1
    outer loop
      vertex 26 10 20
      vertex 28.1289 9.52413 20
      vertex 27.8406 9.64888 20
    endloop
  endfacet
  facet normal 0 0 1
    outer loop
      vertex 26 10 20
      vertex 27.8406 9.64888 20
      vertex 27.5451 9.75528 20
    endloop
  endfacet
  facet normal 0 0 1
    outer loop
      vertex 26 10 20
      vertex 27.5451 9.75528 20
      vertex 27.2435 9.84292 20
    endloop
  endfacet
  facet normal 0 0 1
    outer loop
      vertex 26 10 20
      vertex 27.2435 9.84292 20
      vertex 26.9369 9.91144 20
    endloop
  endfacet
  facet normal 0 0 1
    outer loop
      vertex 26 10 20
      vertex 26.9369 9.91144 20
      vertex 26.6267 9.96057 20
    endloop
  endfacet
  facet normal 0 0 1
    outer loop
      vertex 26 10 20
      vertex 26.6267 9.96057 20
      vertex 26.314 9.99013 20
    endloop
  endfacet
  facet normal 0 0 1
    outer loop
      vertex 31 5 20
      vertex 26 10 20
      vertex 31 0 20
    endloop
  endfacet
  facet normal 0 0 1
    outer loop
      vertex 0 0 20
      vertex 26 10 20
      vertex 0 10 20
    endloop
  endfacet
  facet normal 0 0 1
    outer loop
      vertex 26 10 20
      vertex 0 0 20
      vertex 31 0 20
    endloop
  endfacet
  facet normal -0 0 1
    outer loop
      vertex 32.5623 7.13222 20
      vertex 40 0 20
      vertex 40 20 20
    endloop
  endfacet
  facet normal 0 0 1
    outer loop
      vertex 40 0 20
      vertex 32.8864 5.43325 20
      vertex 32.9 5 20
    endloop
  endfacet
  facet normal 0 0 1
    outer loop
      vertex 40 0 20
      vertex 32.8456 5.8648 20
      vertex 32.8864 5.43325 20
    endloop
  endfacet
  facet normal 0 0 1
    outer loop
      vertex 40 0 20
      vertex 32.7778 6.29293 20
      vertex 32.8456 5.8648 20
    endloop
  endfacet
  facet normal 0 0 1
    outer loop
      vertex 40 0 20
      vertex 32.6832 6.71596 20
      vertex 32.7778 6.29293 20
    endloop
  endfacet
  facet normal 0 0 1
    outer loop
      vertex 40 0 20
      vertex 32.5623 7.13222 20
      vertex 32.6832 6.71596 20
    endloop
  endfacet
  facet normal 0 0 1
    outer loop
      vertex 40 20 20
      vertex 32.4155 7.54006 20
      vertex 32.5623 7.13222 20
    endloop
  endfacet
  facet normal 0 0 1
    outer loop
      vertex 40 20 20
      vertex 32.2433 7.93788 20
      vertex 32.4155 7.54006 20
    endloop
  endfacet
  facet normal 0 0 1
    outer loop
      vertex 40 20 20
      vertex 32.0465 8.3241 20
      vertex 32.2433 7.93788 20
    endloop
  endfacet
  facet normal 0 0 1
    outer loop
      vertex 40 20 20
      vertex 31.8259 8.6972 20
      vertex 32.0465 8.3241 20
    endloop
  endfacet
  facet normal 0 0 1
    outer loop
      vertex 40 20 20
      vertex 31.5822 9.05572 20
      vertex 31.8259 8.6972 20
    endloop
  endfacet
  facet normal 0 0 1
    outer loop
      vertex 40 20 20
      vertex 31.3165 9.39822 20
      vertex 31.5822 9.05572 20
    endloop
  endfacet
  facet normal 0 0 1
    outer loop
      vertex 40 20 20
      vertex 31.0299 9.72337 20
      vertex 31.3165 9.39822 20
    endloop
  endfacet
  facet normal 0 0 1
    outer loop
      vertex 40 20 20
      vertex 30.7234 10.0299 20
      vertex 31.0299 9.72337 20
    endloop
  endfacet
  facet normal 0 0 1
    outer loop
      vertex 40 20 20
      vertex 30.3982 10.3165 20
      vertex 30.7234 10.0299 20
    endloop
  endfacet
  facet normal 0 0 1
    outer loop
      vertex 40 20 20
      vertex 30.0557 10.5822 20
      vertex 30.3982 10.3165 20
    endloop
  endfacet
  facet normal 0 0 1
    outer loop
      vertex 40 20 20
      vertex 29.6972 10.8259 20
      vertex 30.0557 10.5822 20
    endloop
  endfacet
  facet normal 0 0 1
    outer loop
      vertex 40 20 20
      vertex 29.3241 11.0465 20
      vertex 29.6972 10.8259 20
    endloop
  endfacet
  facet normal 0 0 1
    outer loop
      vertex 40 20 20
      vertex 28.9379 11.2433 20
      vertex 29.3241 11.0465 20
    endloop
  endfacet
  facet normal 0 0 1
    outer loop
      vertex 40 20 20
      vertex 28.5401 11.4155 20
      vertex 28.9379 11.2433 20
    endloop
  endfacet
  facet normal 0 0 1
    outer loop
      vertex 40 20 20
      vertex 28.1322 11.5623 20
      vertex 28.5401 11.4155 20
    endloop
  endfacet
  facet normal 0 0 1
    outer loop
      vertex 40 20 20
      vertex 27.716 11.6832 20
      vertex 28.1322 11.5623 20
    endloop
  endfacet
  facet normal 0 0 1
    outer loop
      vertex 40 20 20
      vertex 27.2929 11.7778 20
      vertex 27.716 11.6832 20
    endloop
  endfacet
  facet normal 0 0 1
    outer loop
      vertex 40 20 20
      vertex 26.8648 11.8456 20
      vertex 27.2929 11.7778 20
    endloop
  endfacet
  facet normal 0 0 1
    outer loop
      vertex 40 20 20
      vertex 26.4333 11.8864 20
      vertex 26.8648 11.8456 20
    endloop
  endfacet
  facet normal 0 0 1
    outer loop
      vertex 40 20 20
      vertex 26 11.9 20
      vertex 26.4333 11.8864 20
    endloop
  endfacet
  facet normal 0 0 1
    outer loop
      vertex 40 20 20
      vertex 15 16.5 20
      vertex 26 11.9 20
    endloop
  endfacet
  facet normal -0 0 1
    outer loop
      vertex 0 20 20
      vertex 15 16.5 20
      vertex 40 20 20
    endloop
  endfacet
  facet normal 0 0 1
    outer loop
      vertex 15 16.5 20
      vertex 0 20 20
      vertex 0 16.5 20
    endloop
  endfacet
  facet normal 0 0 1
    outer loop
      vertex 40 0 20
      vertex 32.9 5 20
      vertex 32.9 0 20
    endloop
  endfacet
  facet normal 0 0 1
    outer loop
      vertex 26 11.9 20
      vertex 15 16.5 20
      vertex 15 11.9 20
    endloop
  endfacet
  facet normal 1 0 0
    outer loop
      vertex 40 20 20
      vertex 40 11.9 8.5
      vertex 40 20 0
    endloop
  endfacet
  facet normal 1 -0 0
    outer loop
      vertex 40 0 20
      vertex 40 11.9 8.5
      vertex 40 20 20
    endloop
  endfacet
  facet normal 1 0 0
    outer loop
      vertex 40 11.9 8.5
      vertex 40 0 20
      vertex 40 5.5 8.5
    endloop
  endfacet
  facet normal 1 0 0
    outer loop
      vertex 40 0 0
      vertex 40 5.5 8.5
      vertex 40 0 20
    endloop
  endfacet
  facet normal 1 0 0
    outer loop
      vertex 40 5.5 8.5
      vertex 40 0 0
      vertex 40 5.5 0
    endloop
  endfacet
  facet normal 1 0 0
    outer loop
      vertex 40 20 0
      vertex 40 11.9 8.5
      vertex 40 11.9 0
    endloop
  endfacet
  facet normal 0 1 -0
    outer loop
      vertex 40 20 0
      vertex 0 20 20
      vertex 40 20 20
    endloop
  endfacet
  facet normal 0 1 0
    outer loop
      vertex 0 20 20
      vertex 40 20 0
      vertex 0 20 0
    endloop
  endfacet
  facet normal 0 0 -1
    outer loop
      vertex 7.1 0 0
      vertex 0 0 0
      vertex 7.1 5 0
    endloop
  endfacet
  facet normal 0 0 -1
    outer loop
      vertex 14 11.9 0
      vertex 40 20 0
      vertex 40 11.9 0
    endloop
  endfacet
  facet normal 0 0 -1
    outer loop
      vertex 0 20 0
      vertex 14 11.9 0
      vertex 13.5667 11.8864 0
    endloop
  endfacet
  facet normal 0 0 -1
    outer loop
      vertex 0 20 0
      vertex 13.5667 11.8864 0
      vertex 13.1352 11.8456 0
    endloop
  endfacet
  facet normal 0 0 -1
    outer loop
      vertex 0 20 0
      vertex 13.1352 11.8456 0
      vertex 12.7071 11.7778 0
    endloop
  endfacet
  facet normal 0 0 -1
    outer loop
      vertex 0 20 0
      vertex 12.7071 11.7778 0
      vertex 12.284 11.6832 0
    endloop
  endfacet
  facet normal 0 0 -1
    outer loop
      vertex 0 20 0
      vertex 12.284 11.6832 0
      vertex 11.8678 11.5623 0
    endloop
  endfacet
  facet normal 0 0 -1
    outer loop
      vertex 0 0 0
      vertex 7.11362 5.43325 0
      vertex 7.1 5 0
    endloop
  endfacet
  facet normal 0 0 -1
    outer loop
      vertex 0 0 0
      vertex 7.15441 5.8648 0
      vertex 7.11362 5.43325 0
    endloop
  endfacet
  facet normal 0 0 -1
    outer loop
      vertex 0 0 0
      vertex 7.22222 6.29293 0
      vertex 7.15441 5.8648 0
    endloop
  endfacet
  facet normal 0 0 -1
    outer loop
      vertex 0 0 0
      vertex 7.31678 6.71596 0
      vertex 7.22222 6.29293 0
    endloop
  endfacet
  facet normal 0 0 -1
    outer loop
      vertex 0 0 0
      vertex 7.43771 7.13222 0
      vertex 7.31678 6.71596 0
    endloop
  endfacet
  facet normal 0 0 -1
    outer loop
      vertex 0 20 0
      vertex 7.43771 7.13222 0
      vertex 0 0 0
    endloop
  endfacet
  facet normal 0 0 -1
    outer loop
      vertex 7.43771 7.13222 0
      vertex 0 20 0
      vertex 7.58454 7.54006 0
    endloop
  endfacet
  facet normal 0 0 -1
    outer loop
      vertex 7.58454 7.54006 0
      vertex 0 20 0
      vertex 7.75669 7.93788 0
    endloop
  endfacet
  facet normal 0 0 -1
    outer loop
      vertex 7.75669 7.93788 0
      vertex 0 20 0
      vertex 7.95348 8.3241 0
    endloop
  endfacet
  facet normal 0 0 -1
    outer loop
      vertex 7.95348 8.3241 0
      vertex 0 20 0
      vertex 8.17414 8.6972 0
    endloop
  endfacet
  facet normal 0 0 -1
    outer loop
      vertex 8.17414 8.6972 0
      vertex 0 20 0
      vertex 8.41778 9.05572 0
    endloop
  endfacet
  facet normal 0 0 -1
    outer loop
      vertex 8.41778 9.05572 0
      vertex 0 20 0
      vertex 8.68346 9.39822 0
    endloop
  endfacet
  facet normal 0 0 -1
    outer loop
      vertex 14 11.9 0
      vertex 0 20 0
      vertex 40 20 0
    endloop
  endfacet
  facet normal 0 0 -1
    outer loop
      vertex 11.4599 11.4155 0
      vertex 0 20 0
      vertex 11.8678 11.5623 0
    endloop
  endfacet
  facet normal 0 0 -1
    outer loop
      vertex 11.0621 11.2433 0
      vertex 0 20 0
      vertex 11.4599 11.4155 0
    endloop
  endfacet
  facet normal 0 0 -1
    outer loop
      vertex 10.6759 11.0465 0
      vertex 0 20 0
      vertex 11.0621 11.2433 0
    endloop
  endfacet
  facet normal 0 0 -1
    outer loop
      vertex 10.3028 10.8259 0
      vertex 0 20 0
      vertex 10.6759 11.0465 0
    endloop
  endfacet
  facet normal 0 0 -1
    outer loop
      vertex 9.94428 10.5822 0
      vertex 0 20 0
      vertex 10.3028 10.8259 0
    endloop
  endfacet
  facet normal 0 0 -1
    outer loop
      vertex 9.60178 10.3165 0
      vertex 0 20 0
      vertex 9.94428 10.5822 0
    endloop
  endfacet
  facet normal 0 0 -1
    outer loop
      vertex 9.27663 10.0299 0
      vertex 0 20 0
      vertex 9.60178 10.3165 0
    endloop
  endfacet
  facet normal 0 0 -1
    outer loop
      vertex 8.97012 9.72337 0
      vertex 0 20 0
      vertex 9.27663 10.0299 0
    endloop
  endfacet
  facet normal 0 0 -1
    outer loop
      vertex 8.68346 9.39822 0
      vertex 0 20 0
      vertex 8.97012 9.72337 0
    endloop
  endfacet
  facet normal 0 0 -1
    outer loop
      vertex 40 0 0
      vertex 25 5.5 0
      vertex 40 5.5 0
    endloop
  endfacet
  facet normal 0 0 -1
    outer loop
      vertex 25 5.5 0
      vertex 14 10 0
      vertex 25 10 0
    endloop
  endfacet
  facet normal 0 0 -1
    outer loop
      vertex 9 0 0
      vertex 14 10 0
      vertex 25 5.5 0
    endloop
  endfacet
  facet normal 0 0 -1
    outer loop
      vertex 9 5 0
      vertex 14 10 0
      vertex 9 0 0
    endloop
  endfacet
  facet normal 0 0 -1
    outer loop
      vertex 14 10 0
      vertex 9 5 0
      vertex 13.686 9.99013 0
    endloop
  endfacet
  facet normal 0 0 -1
    outer loop
      vertex 13.3733 9.96057 0
      vertex 9 5 0
      vertex 13.0631 9.91144 0
    endloop
  endfacet
  facet normal 0 0 -1
    outer loop
      vertex 9 0 0
      vertex 25 5.5 0
      vertex 40 0 0
    endloop
  endfacet
  facet normal 0 0 -1
    outer loop
      vertex 13.686 9.99013 0
      vertex 9 5 0
      vertex 13.3733 9.96057 0
    endloop
  endfacet
  facet normal 0 0 -1
    outer loop
      vertex 13.0631 9.91144 0
      vertex 9 5 0
      vertex 12.7566 9.84292 0
    endloop
  endfacet
  facet normal 0 0 -1
    outer loop
      vertex 12.7566 9.84292 0
      vertex 9 5 0
      vertex 12.4549 9.75528 0
    endloop
  endfacet
  facet normal 0 0 -1
    outer loop
      vertex 12.4549 9.75528 0
      vertex 9 5 0
      vertex 12.1594 9.64888 0
    endloop
  endfacet
  facet normal 0 0 -1
    outer loop
      vertex 12.1594 9.64888 0
      vertex 9 5 0
      vertex 11.8711 9.52413 0
    endloop
  endfacet
  facet normal 0 0 -1
    outer loop
      vertex 11.8711 9.52413 0
      vertex 9 5 0
      vertex 11.5912 9.38153 0
    endloop
  endfacet
  facet normal 0 0 -1
    outer loop
      vertex 11.5912 9.38153 0
      vertex 9 5 0
      vertex 11.3209 9.22164 0
    endloop
  endfacet
  facet normal 0 0 -1
    outer loop
      vertex 11.3209 9.22164 0
      vertex 9 5 0
      vertex 11.0611 9.04508 0
    endloop
  endfacet
  facet normal 0 0 -1
    outer loop
      vertex 11.0611 9.04508 0
      vertex 9 5 0
      vertex 10.8129 8.85257 0
    endloop
  endfacet
  facet normal 0 0 -1
    outer loop
      vertex 10.8129 8.85257 0
      vertex 9 5 0
      vertex 10.5773 8.64484 0
    endloop
  endfacet
  facet normal 0 0 -1
    outer loop
      vertex 10.5773 8.64484 0
      vertex 9 5 0
      vertex 10.3552 8.42274 0
    endloop
  endfacet
  facet normal 0 0 -1
    outer loop
      vertex 10.3552 8.42274 0
      vertex 9 5 0
      vertex 10.1474 8.18712 0
    endloop
  endfacet
  facet normal 0 0 -1
    outer loop
      vertex 10.1474 8.18712 0
      vertex 9 5 0
      vertex 9.95492 7.93893 0
    endloop
  endfacet
  facet normal 0 0 -1
    outer loop
      vertex 9.95492 7.93893 0
      vertex 9 5 0
      vertex 9.77836 7.67913 0
    endloop
  endfacet
  facet normal 0 0 -1
    outer loop
      vertex 9.61847 7.40877 0
      vertex 9 5 0
      vertex 9.47587 7.1289 0
    endloop
  endfacet
  facet normal 0 0 -1
    outer loop
      vertex 9.47587 7.1289 0
      vertex 9 5 0
      vertex 9.35112 6.84062 0
    endloop
  endfacet
  facet normal 0 0 -1
    outer loop
      vertex 9.35112 6.84062 0
      vertex 9 5 0
      vertex 9.24472 6.54508 0
    endloop
  endfacet
  facet normal 0 0 -1
    outer loop
      vertex 9.24472 6.54508 0
      vertex 9 5 0
      vertex 9.15708 6.24345 0
    endloop
  endfacet
  facet normal 0 0 -1
    outer loop
      vertex 9.15708 6.24345 0
      vertex 9 5 0
      vertex 9.08856 5.93691 0
    endloop
  endfacet
  facet normal 0 0 -1
    outer loop
      vertex 9.08856 5.93691 0
      vertex 9 5 0
      vertex 9.03943 5.62667 0
    endloop
  endfacet
  facet normal 0 0 -1
    outer loop
      vertex 9.77836 7.67913 0
      vertex 9 5 0
      vertex 9.61847 7.40877 0
    endloop
  endfacet
  facet normal 0 0 -1
    outer loop
      vertex 9.03943 5.62667 0
      vertex 9 5 0
      vertex 9.00987 5.31395 0
    endloop
  endfacet
  facet normal 0 -1 0
    outer loop
      vertex 9 0 8.5
      vertex 31 0 20
      vertex 0 0 20
    endloop
  endfacet
  facet normal 0 -1 -0
    outer loop
      vertex 31 0 20
      vertex 9 0 8.5
      vertex 31 0 11.5
    endloop
  endfacet
  facet normal 0 -1 0
    outer loop
      vertex 9 0 8.5
      vertex 0 0 20
      vertex 7.1 0 8.5
    endloop
  endfacet
  facet normal 0 -1 0
    outer loop
      vertex 0 0 0
      vertex 7.1 0 8.5
      vertex 0 0 20
    endloop
  endfacet
  facet normal 0 -1 -0
    outer loop
      vertex 7.1 0 8.5
      vertex 0 0 0
      vertex 7.1 0 0
    endloop
  endfacet
  facet normal 0 -1 0
    outer loop
      vertex 32.9 0 11.5
      vertex 40 0 20
      vertex 32.9 0 20
    endloop
  endfacet
  facet normal 0 -1 0
    outer loop
      vertex 9 0 0
      vertex 31 0 11.5
      vertex 9 0 8.5
    endloop
  endfacet
  facet normal 0 -1 0
    outer loop
      vertex 40 0 0
      vertex 31 0 11.5
      vertex 9 0 0
    endloop
  endfacet
  facet normal 0 -1 0
    outer loop
      vertex 32.9 0 11.5
      vertex 40 0 0
      vertex 40 0 20
    endloop
  endfacet
  facet normal 0 -1 0
    outer loop
      vertex 31 0 11.5
      vertex 40 0 0
      vertex 32.9 0 11.5
    endloop
  endfacet
  facet normal -1 0 0
    outer loop
      vertex 15 11.9 11.5
      vertex 15 16.5 20
      vertex 15 16.5 11.5
    endloop
  endfacet
  facet normal -1 -0 0
    outer loop
      vertex 15 16.5 20
      vertex 15 11.9 11.5
      vertex 15 11.9 20
    endloop
  endfacet
  facet normal 0 -1 0
    outer loop
      vertex 0 16.5 11.5
      vertex 15 16.5 20
      vertex 0 16.5 20
    endloop
  endfacet
  facet normal 0 -1 -0
    outer loop
      vertex 15 16.5 20
      vertex 0 16.5 11.5
      vertex 15 16.5 11.5
    endloop
  endfacet
  facet normal 1 -0 0
    outer loop
      vertex 25 5.5 8.5
      vertex 25 10 0
      vertex 25 10 8.5
    endloop
  endfacet
  facet normal 1 0 0
    outer loop
      vertex 25 10 0
      vertex 25 5.5 8.5
      vertex 25 5.5 0
    endloop
  endfacet
  facet normal 0 1 -0
    outer loop
      vertex 40 5.5 0
      vertex 25 5.5 8.5
      vertex 40 5.5 8.5
    endloop
  endfacet
  facet normal 0 1 0
    outer loop
      vertex 25 5.5 8.5
      vertex 40 5.5 0
      vertex 25 5.5 0
    endloop
  endfacet
endsolid OpenSCAD_Model
